<?xml version="1.0" standalone="no"?>
<!DOCTYPE svg PUBLIC "-//W3C//DTD SVG 20010904//EN"
 "http://www.w3.org/TR/2001/REC-SVG-20010904/DTD/svg10.dtd">
<svg version="1.0" xmlns="http://www.w3.org/2000/svg"
 width="900.000000pt" height="511.000000pt" viewBox="0 0 900.000000 511.000000"
 preserveAspectRatio="xMidYMid meet">

<g transform="translate(0.000000,511.000000) scale(0.100000,-0.100000)"
fill="#000000" stroke="none">
<path d="M4859 5054 c-24 -30 -43 -60 -41 -65 1 -6 -18 -41 -43 -78 -25 -37
-45 -76 -45 -86 0 -15 3 -16 12 -7 7 7 18 12 26 12 8 0 21 8 29 18 8 9 6 0 -6
-20 -11 -21 -16 -38 -11 -38 5 0 12 5 15 10 4 6 10 8 15 5 5 -3 25 14 45 37
37 42 33 23 -6 -33 -11 -15 -16 -35 -12 -47 3 -15 0 -24 -11 -28 -9 -3 -14
-10 -11 -14 3 -5 -11 -18 -30 -30 -36 -22 -45 -39 -22 -41 6 -1 -7 -5 -30 -9
-124 -25 -194 -55 -291 -126 -21 -16 -22 -16 -16 1 6 15 4 16 -17 5 -29 -15
-79 -61 -79 -72 0 -4 6 -8 14 -8 10 0 7 -14 -14 -52 -15 -29 -33 -80 -40 -113
-6 -33 -20 -87 -30 -120 -10 -33 -21 -96 -23 -139 -3 -45 -11 -82 -18 -86 -6
-4 -8 -13 -5 -19 11 -17 -10 -13 -24 4 -19 23 -62 18 -125 -15 -31 -16 -63
-30 -70 -30 -7 0 -15 -6 -18 -14 -3 -8 -33 -27 -67 -42 l-61 -27 28 -12 c15
-7 34 -10 41 -7 7 2 12 -5 12 -18 0 -16 4 -20 16 -16 9 3 12 2 9 -4 -4 -6 3
-22 14 -36 23 -30 28 -49 9 -38 -10 6 -10 4 -2 -7 6 -8 14 -23 18 -33 6 -17 4
-17 -11 -5 -31 23 -49 43 -56 62 -3 9 -18 22 -32 27 -14 5 -25 15 -25 22 0 9
-3 10 -8 2 -4 -6 -17 -16 -29 -22 -17 -9 -21 -19 -19 -47 3 -32 -3 -40 -26
-36 -5 0 -8 -3 -8 -9 0 -5 5 -10 12 -10 6 0 9 -3 5 -6 -3 -3 -12 -2 -19 2 -23
14 -36 13 -54 -7 -16 -18 -16 -19 9 -19 18 0 27 -5 27 -16 0 -11 -6 -13 -19
-9 -21 6 -33 -7 -38 -40 -5 -27 -37 -57 -97 -89 -36 -20 -47 -23 -42 -11 4 13
2 14 -14 5 -11 -6 -20 -17 -20 -24 0 -8 -16 -34 -36 -57 -20 -24 -40 -54 -45
-66 -4 -12 -21 -30 -36 -39 -15 -10 -46 -34 -68 -54 -42 -38 -95 -66 -95 -51
0 11 -57 -15 -65 -30 -4 -5 -11 -7 -16 -4 -5 4 -9 0 -9 -7 0 -10 -2 -10 -9 1
-8 12 -12 12 -26 -2 -9 -10 -13 -17 -10 -17 4 0 -5 -21 -20 -47 l-26 -48 26
25 c14 13 35 25 46 27 l20 3 -19 -37 c-11 -21 -23 -46 -26 -56 -4 -12 -12 -16
-24 -13 -13 4 -23 -1 -32 -19 -7 -14 -16 -23 -18 -20 -3 3 3 20 13 40 11 19
16 37 12 41 -7 8 -48 -24 -44 -35 3 -10 -46 -70 -71 -87 -23 -15 -23 -15 -12
5 6 12 14 21 18 21 4 0 13 12 19 27 l13 26 -26 -24 c-14 -13 -42 -46 -62 -74
-54 -75 -73 -94 -89 -88 -12 5 -11 9 5 27 31 33 72 101 77 124 4 24 -16 21
-49 -7 -13 -10 -10 -3 7 20 34 45 35 60 2 29 -14 -13 -25 -20 -25 -15 0 4 -10
0 -22 -11 l-22 -19 18 28 c28 45 14 40 -19 -6 -16 -23 -22 -36 -12 -28 31 25
18 -4 -17 -38 -19 -18 -32 -39 -30 -45 2 -6 -12 -27 -33 -46 -20 -19 -31 -27
-24 -17 7 9 9 17 3 17 -15 0 -82 -72 -76 -82 9 -14 19 -9 37 20 l17 27 -7 -33
c-6 -32 -5 -33 16 -23 11 6 31 16 42 22 l22 11 -22 -31 c-28 -38 -17 -40 22
-3 l30 27 -19 -30 -18 -30 30 25 c16 14 35 31 42 39 6 8 12 10 12 5 0 -6 -13
-23 -30 -39 -22 -21 -29 -36 -27 -59 1 -21 -2 -30 -11 -28 -8 1 -11 -2 -8 -7
4 -5 -9 -19 -28 -30 -34 -21 -58 -65 -30 -54 8 3 14 0 14 -6 0 -9 5 -9 20 -1
11 6 20 7 20 3 0 -4 5 -1 10 7 8 13 10 12 10 -3 0 -13 6 -16 25 -13 14 3 25 0
25 -6 0 -6 10 -4 24 5 23 16 23 15 22 -26 l-2 -42 -94 -22 c-52 -12 -144 -32
-205 -44 l-110 -23 43 -19 c70 -30 153 -35 277 -15 137 22 146 22 139 3 -8
-20 6 -19 22 2 13 16 13 15 5 -7 -6 -18 -15 -24 -29 -22 -13 2 -25 -5 -32 -17
-10 -20 -4 -26 23 -22 11 2 8 -11 -8 -39 -17 -30 -18 -40 -5 -40 6 0 10 4 10
10 0 5 17 26 38 47 21 21 37 44 34 51 -2 6 2 12 10 12 7 0 20 9 28 20 16 22
40 27 40 8 0 -6 -3 -9 -6 -5 -4 3 -13 -1 -22 -9 -13 -14 -13 -17 -1 -25 8 -5
17 -9 22 -9 4 0 7 -5 7 -11 0 -6 -7 -8 -17 -5 -10 4 -14 4 -10 0 4 -4 2 -14
-5 -21 -9 -11 -9 -17 3 -24 11 -8 10 -9 -6 -7 -12 2 -20 -3 -20 -11 0 -8 -13
-28 -28 -44 l-28 -30 23 -12 c20 -11 26 -10 41 7 9 11 17 26 17 34 0 8 7 14
16 14 10 0 14 6 10 15 -3 8 -1 15 4 15 6 0 10 7 10 16 0 14 2 15 16 3 15 -12
16 -11 9 11 -7 24 -7 24 12 7 24 -21 25 -21 53 3 20 18 24 30 24 85 l0 65 35
6 c20 3 57 10 83 16 38 9 53 9 73 -2 22 -12 28 -12 35 0 8 13 48 22 62 13 4
-2 2 -10 -5 -17 -6 -8 -15 -12 -19 -9 -12 7 -9 -10 6 -29 18 -25 29 -22 21 5
-6 21 -6 21 14 -3 23 -28 26 -40 11 -40 -7 0 -7 -6 0 -20 6 -11 19 -20 30 -20
21 0 33 -28 24 -56 -4 -14 -3 -15 4 -6 7 11 11 8 16 -12 3 -14 11 -26 16 -26
13 0 13 13 -1 27 -8 8 -8 16 0 30 6 10 11 15 11 12 0 -4 5 -31 11 -60 12 -56
12 -96 4 -164 -4 -30 -3 -35 4 -19 5 12 13 54 17 93 3 39 10 68 15 65 16 -9
10 -100 -10 -164 -24 -76 -9 -66 19 13 26 74 26 147 0 177 -11 12 -17 27 -14
32 3 5 17 -6 30 -24 23 -31 24 -39 19 -113 -4 -44 -8 -86 -10 -92 -3 -7 -1
-13 4 -13 9 0 31 97 31 135 0 12 6 22 14 22 11 0 12 -6 5 -24 -5 -14 -8 -43
-8 -66 1 -23 4 -32 6 -19 2 12 9 22 15 22 6 0 8 -10 4 -25 -4 -14 -9 -45 -13
-70 -3 -25 -10 -48 -14 -51 -5 -3 -7 -15 -3 -28 3 -12 -4 -69 -16 -126 -12
-57 -20 -118 -20 -134 3 -54 0 -76 -10 -76 -5 0 -10 15 -11 33 0 29 -1 30 -12
13 -7 -10 -22 -31 -34 -45 -19 -22 -24 -24 -33 -11 -8 12 -10 11 -10 -6 0 -29
-35 -97 -59 -114 -21 -14 -30 -37 -11 -25 6 3 10 -1 10 -9 0 -22 20 -20 21 2
1 9 1 20 1 23 -1 3 6 6 14 6 17 0 17 -3 4 -26 -8 -15 -12 -35 -20 -106 0 -5
-7 4 -15 20 l-13 30 -1 -27 c-2 -47 -18 -31 -17 17 0 56 -17 77 -40 49 -15
-18 -15 -18 -10 11 2 17 8 39 12 49 5 14 4 17 -5 11 -8 -4 -7 2 3 17 10 15 18
55 21 99 3 50 2 68 -4 54 -9 -18 -10 -17 -10 8 -1 15 4 27 10 27 5 0 8 3 6 7
-2 5 -1 35 4 68 4 33 10 97 13 143 5 73 4 84 -14 102 -11 11 -20 28 -20 38 -1
15 -2 15 -15 -2 -14 -19 -15 -18 -16 10 -1 19 -4 11 -9 -21 -5 -33 -24 -76
-53 -124 -26 -41 -44 -78 -41 -82 2 -4 -4 -12 -13 -18 -10 -6 -12 -11 -5 -11
6 0 12 -5 12 -11 0 -5 -5 -7 -11 -4 -6 4 -13 -2 -16 -14 -3 -12 -10 -21 -15
-21 -5 0 -6 -6 -2 -12 4 -7 4 -10 -1 -6 -4 4 -8 40 -7 80 1 64 -1 69 -12 48
-7 -15 -10 -36 -5 -52 6 -22 4 -26 -9 -21 -9 4 -13 2 -9 -4 12 -19 -32 -104
-73 -142 -22 -20 -40 -41 -40 -47 0 -5 -18 -28 -40 -49 -41 -40 -57 -39 -18 2
12 13 17 23 11 23 -6 0 -23 -16 -37 -35 -15 -20 -31 -33 -36 -30 -5 3 -11 1
-15 -5 -3 -5 1 -10 9 -10 8 0 18 5 21 10 3 6 11 10 16 10 6 0 7 -6 2 -12 -4
-7 12 2 35 20 52 42 59 19 7 -27 -19 -17 -35 -37 -35 -46 0 -8 -6 -15 -14 -15
-7 0 -19 -6 -25 -14 -9 -11 -6 -13 14 -11 14 2 25 -2 25 -8 0 -7 5 -6 11 3 8
12 9 9 5 -12 -3 -15 -2 -30 4 -33 6 -4 7 -13 1 -23 -11 -21 -33 -173 -26 -180
3 -3 5 -3 6 -1 8 45 11 55 19 57 6 2 10 13 10 23 0 11 4 18 9 15 9 -6 27 49
23 71 -2 11 17 47 78 150 17 28 53 42 43 17 -3 -8 -9 -11 -14 -9 -9 6 -59 -86
-59 -109 0 -9 -9 -20 -20 -26 -11 -6 -20 -16 -20 -22 0 -7 14 1 30 17 17 16
30 25 30 19 0 -13 -40 -71 -41 -59 -1 6 -7 -24 -15 -65 -7 -41 -10 -77 -6 -80
4 -3 7 -41 7 -85 0 -44 4 -94 8 -112 8 -29 6 -31 -12 -26 -12 3 -21 10 -21 16
0 6 -3 7 -7 4 -8 -9 37 -58 47 -52 4 3 13 -2 20 -10 7 -8 24 -15 39 -15 l26 0
-31 19 c-35 22 -54 65 -54 125 0 56 24 139 50 175 12 17 18 31 15 31 -3 0 4
14 16 32 13 17 18 28 11 24 -7 -4 -12 -5 -12 -1 0 11 63 43 76 38 10 -4 12 0
8 11 -3 9 -1 16 5 16 6 0 11 7 11 16 0 9 -5 12 -12 8 -7 -4 -8 -3 -4 4 5 8 13
9 26 2 15 -8 21 -4 34 23 9 17 27 52 41 77 14 25 25 54 25 65 0 12 7 30 15 41
14 19 14 19 15 -1 0 -27 -46 -139 -59 -143 -6 -2 -9 -8 -5 -13 3 -5 -7 -26
-23 -47 -15 -20 -33 -46 -39 -57 -6 -11 -27 -28 -47 -38 -44 -20 -48 -30 -9
-21 15 4 38 18 52 33 14 14 34 33 45 41 19 15 19 14 3 -11 -16 -26 -16 -26 8
-23 26 2 60 22 88 49 15 15 16 13 11 -26 -6 -42 -6 -43 15 -24 11 10 20 14 20
9 -1 -5 -17 -22 -38 -38 -30 -23 -33 -27 -12 -21 23 7 24 7 10 -10 -12 -15
-12 -17 -1 -10 11 6 13 2 9 -19 -4 -18 0 -30 11 -36 10 -6 11 -10 4 -10 -7 0
-13 -7 -13 -15 0 -9 6 -12 18 -9 11 4 13 3 5 -3 -6 -4 -11 -24 -10 -43 2 -32
0 -35 -25 -35 -14 1 -25 -2 -22 -6 2 -4 -16 -15 -41 -24 -24 -10 -47 -25 -50
-34 -10 -32 -97 -116 -116 -113 -11 2 -19 -1 -19 -6 0 -15 37 -21 68 -12 15 5
21 9 13 9 -11 1 -11 4 -1 16 7 8 15 13 19 11 4 -3 13 0 21 6 12 8 12 9 -2 4
-10 -3 -18 -3 -18 -1 0 9 65 64 75 64 6 0 -3 -11 -18 -24 -17 -15 -23 -25 -14
-25 8 0 20 7 27 15 7 8 18 15 25 15 8 0 0 -14 -17 -30 -16 -17 -34 -30 -39
-30 -5 0 -9 -4 -9 -10 0 -5 -7 -10 -16 -10 -9 0 -14 -6 -11 -12 6 -18 -22 -70
-33 -63 -6 3 -7 -1 -4 -9 3 -8 12 -12 19 -10 16 7 32 -16 17 -25 -6 -3 -13
-35 -17 -71 l-6 -65 23 48 c14 30 27 46 35 43 7 -3 13 -1 13 4 0 6 28 37 63
69 64 60 172 146 150 119 -7 -8 -10 -18 -6 -21 3 -4 -1 -15 -9 -24 -8 -10 -18
-25 -22 -33 -7 -13 -6 -13 6 0 16 18 64 50 76 50 4 0 9 -19 10 -42 2 -38 1
-41 -12 -25 -12 16 -14 16 -20 1 -9 -23 -7 -31 4 -14 8 12 10 11 10 -8 0 -12
-6 -25 -14 -28 -8 -3 -12 -12 -9 -21 8 -20 -11 -30 -47 -25 -19 3 -30 10 -30
21 -1 14 -2 14 -14 -1 -7 -10 -19 -18 -27 -18 -8 0 -6 -6 7 -15 10 -8 14 -15
8 -15 -6 0 -11 -6 -11 -12 -1 -7 -4 -35 -7 -63 -4 -39 -3 -45 5 -26 5 14 7 31
5 38 -3 7 -2 13 3 13 7 0 20 27 25 53 0 4 4 7 9 7 4 0 21 0 37 0 28 0 30 -2
19 -21 -8 -15 -8 -19 0 -15 20 13 11 -15 -13 -39 -13 -13 -26 -30 -29 -37 -13
-31 -6 23 8 61 10 31 11 41 2 41 -7 0 -13 -10 -14 -22 -3 -38 -25 -131 -39
-168 l-14 -35 1 30 c2 54 -1 66 -12 59 -7 -4 -10 -27 -6 -63 3 -36 2 -47 -3
-31 -4 14 -9 50 -9 80 -1 43 -4 51 -12 37 -16 -27 3 -147 23 -147 10 0 1 -60
-12 -73 -4 -5 -11 7 -15 25 l-7 33 -11 -30 c-11 -29 -15 -30 -49 -25 -20 4
-35 3 -32 -2 3 -4 14 -8 25 -8 11 0 17 -5 14 -10 -3 -6 -1 -11 4 -11 6 -1 16
-2 22 -3 6 0 21 -33 33 -72 23 -73 54 -134 68 -134 12 0 10 6 -12 42 -14 24
-20 50 -19 93 0 63 5 60 30 -24 13 -42 71 -110 94 -110 6 0 -4 12 -21 27 -43
38 -54 55 -69 107 -13 42 -13 45 4 45 12 0 21 -10 26 -27 7 -31 23 -53 37 -53
5 0 0 12 -11 26 -38 48 -31 52 82 37 56 -7 113 -17 126 -23 23 -11 245 -15
289 -6 14 3 22 0 22 -9 0 -17 -111 -30 -183 -21 -29 4 -77 9 -107 11 -49 4
-52 3 -25 -7 23 -8 211 -18 339 -18 4 0 1 -11 -8 -25 -19 -29 -20 -39 -4 -29
7 4 8 3 4 -4 -4 -7 -14 -12 -22 -12 -8 0 -14 -4 -14 -9 0 -5 23 -9 50 -9 28
-1 50 3 50 9 0 5 10 9 23 9 18 0 19 -2 7 -10 -10 -6 221 -10 662 -10 l677 0
16 29 c8 17 24 36 35 44 15 11 20 25 20 53 -2 61 34 260 45 254 6 -2 9 -11 7
-20 -2 -13 -2 -13 8 0 9 11 13 12 17 2 2 -6 9 -10 14 -6 5 3 9 1 9 -4 0 -5 11
-8 25 -7 28 4 43 -10 20 -19 -8 -3 -15 -2 -15 2 0 4 -9 8 -19 8 -25 0 -33 -27
-13 -46 14 -13 15 -12 9 3 -4 11 -3 16 3 12 9 -5 37 7 70 31 25 18 60 15 57
-4 -1 -9 -6 -22 -10 -29 -5 -7 -1 -9 13 -6 16 4 19 2 14 -13 -4 -11 -14 -27
-22 -36 -13 -15 -13 -18 -1 -18 8 0 -1 -15 -21 -32 -19 -18 -34 -37 -32 -43 1
-6 -16 -21 -38 -34 -22 -12 -40 -27 -40 -33 0 -6 -11 -26 -25 -44 -14 -18 -25
-36 -25 -39 0 -3 31 -5 69 -4 38 2 69 6 68 9 -2 6 8 10 24 10 5 0 7 -6 3 -13
-3 -6 13 7 36 31 23 23 46 42 51 42 20 0 133 118 155 163 14 26 29 47 35 47 6
0 9 10 8 23 -1 12 2 30 6 41 7 17 9 17 21 -5 12 -22 13 -22 15 -4 1 11 1 23 0
27 0 5 4 7 10 5 6 -1 13 3 16 10 3 8 -3 11 -16 8 -12 -2 -21 -2 -21 0 0 13 25
55 32 55 5 0 6 10 3 22 -6 17 -4 20 9 15 14 -6 15 -3 6 13 -13 24 -10 24 35 6
31 -13 34 -13 32 4 -1 10 -12 23 -24 29 l-23 11 22 26 c13 15 28 32 34 38 5 6
22 29 37 50 14 22 63 65 108 95 71 49 86 65 118 123 20 37 43 76 52 86 9 11
15 32 13 48 -2 21 -1 25 6 14 8 -12 10 -10 11 10 1 14 3 35 4 47 3 28 -9 30
-27 5 -7 -10 -19 -22 -26 -26 -11 -7 -11 -4 0 13 7 12 16 21 19 21 8 0 19 26
26 60 2 14 12 33 21 44 16 18 16 18 -8 5 -44 -25 -64 -59 -33 -59 24 0 7 -13
-22 -16 -14 -1 -25 3 -25 9 0 7 -5 5 -10 -5 -6 -9 -34 -41 -63 -70 -77 -80
-187 -208 -187 -219 0 -5 -4 -9 -9 -9 -22 0 12 108 39 125 15 9 12 0 -11 -40
-16 -26 -17 -34 -6 -29 13 5 156 209 146 209 -2 0 6 15 19 32 20 28 21 32 5
26 -10 -3 -15 -3 -11 2 4 4 2 15 -5 23 -8 10 -8 13 -1 9 7 -4 14 -1 17 7 3 8
-1 17 -9 20 -9 3 -13 10 -9 15 3 5 0 13 -6 17 -7 4 -9 3 -5 -4 3 -6 2 -13 -3
-16 -5 -4 -8 -17 -7 -31 2 -13 0 -22 -5 -19 -4 2 -16 -13 -25 -33 -10 -21 -20
-42 -22 -47 -3 -5 6 -1 20 10 14 10 24 22 21 27 -2 4 1 7 6 7 17 0 13 -17 -7
-32 -21 -15 -79 -89 -82 -103 -1 -5 -4 -12 -7 -15 -4 -3 -3 1 2 9 5 9 4 12 -3
7 -7 -4 -12 -13 -12 -21 0 -19 -30 -46 -42 -39 -6 4 -9 3 -6 -2 11 -19 -11
-53 -31 -49 -23 4 -45 -18 -46 -49 -1 -19 -10 -60 -21 -94 -2 -7 -4 -16 -5
-20 -1 -4 -5 -17 -10 -29 -5 -13 -6 -23 -2 -23 4 0 18 10 32 23 14 12 20 14
12 5 -7 -9 -10 -21 -7 -26 3 -5 -3 -20 -13 -33 -10 -13 -16 -29 -14 -35 2 -6
-3 -14 -12 -18 -12 -4 -14 0 -9 21 5 19 4 24 -5 18 -9 -5 -12 -1 -9 12 2 11
-2 26 -8 34 -26 33 -34 80 -20 113 13 29 36 95 36 102 0 2 -11 4 -24 4 l-24 0
20 43 c18 38 24 43 47 40 22 -4 23 -3 9 7 -17 10 -17 13 -2 35 15 23 15 25 0
25 -8 0 -18 -11 -22 -25 -4 -14 -9 -24 -12 -21 -3 3 -11 -2 -19 -12 -8 -9 -11
-11 -7 -3 4 9 3 12 -3 8 -6 -4 -8 -18 -5 -32 5 -27 -6 -33 -26 -13 -9 9 -12 9
-12 -1 0 -7 -6 -11 -14 -8 -9 4 -16 -3 -20 -16 -3 -12 -7 -19 -10 -16 -11 10
7 50 20 45 7 -3 13 2 12 12 0 9 4 28 8 42 l7 25 -21 -25 c-12 -14 -21 -20 -22
-15 0 6 5 16 12 23 14 14 19 82 6 82 -4 0 -8 6 -8 14 0 8 -8 14 -19 13 -10 0
-18 -6 -17 -12 2 -15 -58 -145 -66 -145 -5 0 -8 19 -8 42 0 23 -5 57 -12 75
-10 28 -10 38 4 61 9 15 25 27 35 27 13 0 18 8 18 30 0 17 4 36 8 42 5 9 2 13
-9 13 -13 0 -14 3 -4 15 10 12 10 15 -3 15 -8 0 -20 -7 -27 -15 -26 -32 -30
-13 -5 29 20 34 23 46 13 54 -9 7 -19 6 -32 -4 -20 -14 -20 -14 0 -14 16 -1
14 -4 -11 -25 -16 -14 -34 -25 -38 -25 -4 0 -8 28 -7 63 0 69 -8 126 -21 143
-6 7 -1 18 11 29 11 10 20 15 20 12 0 -8 49 43 93 96 21 26 31 44 22 40 -15
-5 -15 -3 -4 15 15 24 5 42 -13 24 -19 -19 -25 -14 -25 18 0 30 10 39 22 20 4
-6 11 -8 17 -4 5 3 24 -7 41 -22 26 -24 28 -24 11 -4 -35 41 -104 159 -104
178 1 15 2 15 15 -2 8 -11 15 -16 15 -11 0 5 -7 16 -15 25 -9 10 -16 35 -17
56 -1 39 -23 78 -39 68 -5 -3 -6 1 -3 9 3 8 1 18 -5 22 -6 3 -11 -1 -11 -9 0
-20 -17 -29 -26 -15 -4 8 -3 9 4 5 7 -4 12 -1 12 8 0 9 -4 16 -10 16 -5 0 -10
10 -10 23 1 20 2 20 11 5 5 -10 14 -18 20 -18 13 0 94 -82 102 -104 4 -10 10
-16 14 -13 3 4 12 2 19 -4 21 -17 28 10 8 32 -9 10 -14 19 -10 19 3 0 -8 14
-26 31 -18 18 -25 26 -15 19 9 -7 17 -9 17 -5 0 11 52 -46 66 -72 10 -17 9
-26 -1 -39 -7 -11 -9 -22 -4 -28 5 -6 22 -28 38 -49 22 -28 30 -33 35 -22 3 9
2 14 -2 11 -4 -2 -8 14 -9 37 -2 39 -1 41 13 23 8 -11 14 -23 14 -28 0 -14 18
-9 24 8 3 8 -1 27 -10 42 -13 22 -10 20 15 -8 17 -19 31 -29 31 -24 0 6 -9 19
-20 29 -11 10 -20 25 -20 33 0 8 -6 12 -14 9 -11 -4 -13 -1 -9 10 5 12 2 15
-9 11 -10 -4 -20 3 -28 20 -20 41 -21 56 -4 41 7 -6 11 -16 7 -22 -3 -6 -1 -7
5 -3 9 5 9 13 0 29 -10 20 -10 21 6 8 9 -8 15 -23 14 -34 -2 -11 3 -22 11 -25
9 -3 11 0 7 9 -4 8 -1 5 8 -5 8 -10 13 -22 11 -26 -3 -5 2 -11 11 -14 8 -3 13
-10 10 -14 -3 -4 6 -21 19 -38 15 -18 23 -23 21 -13 -1 10 -8 24 -15 33 -9 11
-10 16 -2 16 6 0 11 -5 11 -10 0 -6 6 -9 13 -8 7 2 11 -6 10 -17 -1 -17 0 -18
10 -5 7 9 22 15 35 14 20 -1 23 2 17 20 -3 11 -7 30 -8 41 -1 11 -6 23 -10 26
-7 5 -14 26 -16 52 -1 4 -5 7 -10 7 -5 0 -5 -15 -1 -35 4 -20 4 -38 -1 -41 -5
-3 -7 -10 -3 -15 3 -5 9 -7 14 -4 5 3 14 -4 20 -15 6 -11 7 -20 3 -21 -4 0
-16 -2 -26 -4 -10 -2 -17 2 -16 8 1 7 -3 25 -9 40 -7 16 -9 33 -6 39 4 6 1 14
-6 18 -7 4 -13 22 -14 39 0 17 -5 31 -9 31 -4 0 -7 6 -5 13 1 6 -8 31 -20 54
-12 23 -22 49 -22 57 0 8 -11 28 -25 44 -28 33 -32 47 -11 39 11 -4 11 1 1 30
-7 19 -17 38 -23 42 -5 3 -13 23 -17 44 -4 20 -11 40 -16 43 -19 11 -7 22 31
28 22 3 40 11 40 16 0 5 -7 7 -15 4 -10 -4 -15 0 -15 16 0 11 4 19 8 16 5 -3
7 12 5 32 -2 25 0 32 7 22 5 -8 6 -19 3 -25 -3 -5 0 -5 6 1 10 9 9 18 -3 42
-9 17 -22 34 -28 38 -9 5 -9 3 1 -9 7 -10 9 -17 3 -17 -15 0 -21 22 -10 43 13
25 22 21 35 -13 15 -39 31 -39 25 0 -2 16 -8 27 -13 24 -5 -3 -9 0 -9 6 0 21
25 4 28 -18 4 -26 22 -30 22 -4 1 12 5 9 16 -10 8 -16 17 -28 20 -28 2 0 0 9
-6 19 -5 11 -10 23 -10 27 0 13 35 -30 48 -59 8 -20 17 -27 28 -23 18 7 47
-17 36 -30 -4 -5 1 -2 11 5 12 9 17 10 17 2 0 -9 3 -9 13 0 13 12 18 51 6 43
-4 -2 -9 5 -12 16 -6 24 8 27 17 4 4 -9 13 -14 22 -10 10 4 13 2 7 -7 -4 -6
-8 -19 -10 -27 -1 -11 2 -11 12 3 11 16 14 16 28 2 21 -21 30 -19 17 4 -15 30
-12 48 5 25 12 -16 16 -17 24 -5 6 10 4 19 -5 28 -13 13 -18 28 -15 45 0 4 -6
22 -13 40 -7 18 -12 43 -11 55 2 27 -17 35 -64 27 l-36 -6 30 20 c17 10 38 30
47 44 9 14 30 31 47 37 16 7 32 19 35 28 4 9 -5 6 -27 -9 -17 -13 -33 -22 -34
-20 -8 7 -23 1 -18 -7 3 -5 1 -12 -5 -16 -5 -3 -10 -1 -10 5 0 5 -17 0 -37
-13 -57 -35 -71 -41 -45 -19 12 11 22 23 22 28 0 4 8 13 18 20 15 12 14 13
-11 4 -30 -10 -77 -10 -77 1 0 4 9 9 21 12 18 5 20 11 16 44 -5 33 -4 36 8 20
8 -12 15 -14 20 -8 3 6 15 11 26 11 11 0 18 4 15 8 -3 5 32 47 77 93 84 85
155 171 127 154 -8 -5 -21 -10 -28 -11 -8 -2 -39 -27 -70 -57 -31 -29 -68 -59
-82 -67 -29 -15 -22 -8 43 44 26 21 45 42 41 47 -3 5 1 12 9 15 8 3 29 23 46
44 28 36 25 34 -55 -26 -85 -63 -104 -73 -104 -55 0 11 83 81 96 81 5 0 18 8
29 17 l20 16 -20 -8 c-11 -4 -27 -8 -35 -9 -9 -1 -21 -6 -29 -10 -7 -5 15 25
49 65 34 41 74 81 89 89 22 11 27 21 24 39 -5 34 -13 39 -24 18 -6 -9 -17 -17
-25 -17 -11 0 -4 14 21 45 43 52 38 81 -6 39 l-29 -28 1 25 c0 13 3 18 6 11 7
-19 23 -4 23 24 0 15 -6 24 -15 24 -8 0 -15 -6 -15 -13 0 -8 -12 -24 -27 -38
-14 -13 -23 -18 -19 -11 4 6 5 12 3 12 -6 0 -74 -59 -121 -105 -23 -22 -55
-49 -71 -59 -17 -11 -41 -32 -54 -48 -13 -15 -27 -28 -32 -28 -16 0 -4 41 19
63 21 20 23 20 16 2 -5 -15 2 -11 28 13 19 18 38 29 42 25 4 -5 6 -3 5 2 -2 6
29 44 69 85 90 93 95 118 7 30 -36 -35 -65 -59 -65 -52 0 6 11 19 25 28 14 9
25 21 25 26 0 6 -7 4 -17 -3 -15 -13 -15 -12 0 18 9 17 21 34 26 38 6 3 8 12
5 19 -4 11 6 14 48 11 29 -1 61 -6 71 -10 10 -4 17 -3 17 4 0 8 6 9 18 3 9 -5
23 -7 30 -5 7 3 20 2 28 -1 13 -5 14 -9 4 -21 -7 -9 -10 -18 -6 -22 3 -4 12 1
19 11 7 9 21 19 32 21 11 2 22 4 25 4 3 1 -2 6 -10 11 -13 8 -12 10 3 10 9 0
17 4 17 9 0 14 -33 18 -52 7 -11 -7 -25 -6 -43 2 -15 7 -24 8 -20 2 3 -5 -3
-10 -14 -10 -29 0 -34 17 -10 34 19 13 24 13 36 0 17 -16 33 -18 33 -4 0 6 -6
10 -12 10 -10 0 -10 2 0 9 18 11 -23 37 -72 46 -22 5 -36 13 -36 22 0 8 4 12
9 9 4 -3 13 6 19 19 16 34 1 31 -23 -5 -16 -25 -22 -27 -35 -16 -8 7 -24 17
-35 21 -18 8 -17 9 10 13 29 4 58 30 49 44 -3 5 -25 8 -50 8 -27 0 -43 4 -39
10 3 5 0 7 -8 4 -8 -3 -32 -1 -53 5 -66 17 -134 23 -147 13 -14 -12 -188 -22
-181 -10 3 4 19 17 36 30 17 12 28 17 24 10 -12 -20 9 -13 50 16 22 16 46 27
54 25 11 -4 12 -2 2 4 -9 7 -2 18 28 42 42 34 51 34 23 2 -9 -11 -18 -27 -19
-36 -3 -21 14 -7 99 80 33 33 56 54 53 48 -15 -28 10 -11 26 18 10 16 13 27 6
23 -7 -5 -8 -3 -4 5 5 7 10 27 12 44 4 25 2 29 -6 17 -9 -12 -11 -12 -8 -1 2
8 14 15 26 16 26 2 27 -3 6 -26 -8 -9 -11 -20 -6 -23 5 -3 44 29 85 71 42 42
74 70 73 62 -5 -23 -18 -52 -39 -84 -10 -17 -2 -10 19 15 22 24 51 57 67 72
28 29 37 55 15 42 -7 -4 -1 6 13 22 14 16 36 44 49 62 22 33 22 34 1 21 -11
-8 -21 -17 -21 -21 0 -5 -5 -8 -12 -8 -6 0 1 14 17 30 21 22 24 30 13 30 -9 0
-22 -10 -31 -22 -15 -23 -15 -23 -32 -3 -9 11 -14 13 -10 5 4 -8 -1 -6 -9 5
-16 19 -17 19 -34 0 -16 -18 -16 -18 1 -6 14 11 17 11 17 -2 0 -9 -4 -18 -9
-22 -6 -3 -9 -18 -7 -33 1 -15 -8 -43 -22 -64 -26 -40 -45 -50 -40 -21 2 12
-4 18 -16 18 -14 0 -31 -19 -55 -60 -24 -41 -36 -54 -39 -42 -3 15 -6 15 -24
-5 -11 -13 -16 -16 -12 -8 4 8 -13 -3 -39 -25 -25 -21 -49 -45 -51 -52 -3 -7
-11 -13 -18 -13 -6 0 1 13 16 29 15 16 28 32 27 35 -1 3 1 6 4 6 8 -1 24 18
58 63 30 39 27 49 -6 20 -19 -17 -20 -17 -14 0 4 11 3 16 -3 12 -6 -4 -9 -14
-8 -23 2 -12 -4 -17 -22 -17 -18 -1 -24 -6 -22 -18 2 -9 -1 -17 -6 -17 -4 0
-30 -21 -58 -48 -27 -26 -58 -54 -69 -62 -19 -14 -19 -14 -5 4 8 11 37 40 63
65 26 24 46 50 43 57 -2 6 17 29 44 50 48 38 60 54 40 54 -5 0 -10 -4 -10 -8
0 -5 -13 -18 -30 -30 l-30 -23 0 32 c0 26 3 30 19 26 13 -3 18 0 15 7 -3 7 7
18 20 24 21 9 27 8 34 -4 7 -12 15 -7 46 23 21 21 43 47 48 58 6 11 -8 -2 -32
-28 l-42 -48 -33 68 c-24 49 -30 72 -22 81 7 9 5 11 -9 6 -16 -5 -16 -4 -4 5
22 16 30 14 41 -11 l10 -23 -5 23 c-4 20 0 22 40 22 52 0 117 30 138 63 7 12
16 36 20 52 l6 30 -18 -25 c-37 -54 -71 -81 -100 -82 -40 -1 -60 12 -38 24 9
5 16 16 16 24 0 8 -4 13 -9 9 -5 -3 -13 0 -16 6 -5 6 -13 3 -22 -11 -11 -16
-18 -19 -27 -10 -8 8 -7 13 4 20 11 7 11 10 2 10 -8 0 -10 5 -6 13 4 6 -2 4
-13 -5 -22 -20 -44 -25 -25 -6 7 7 12 19 11 27 0 11 -2 12 -6 4 -8 -21 -23
-15 -33 12 -5 14 -24 34 -42 45 -30 18 -31 20 -10 20 13 0 32 -5 43 -10 24
-13 25 -2 2 16 -24 18 -55 17 -79 -1 -10 -8 -28 -15 -38 -15 -11 0 -28 -8 -39
-17 -19 -17 -20 -17 -9 4 9 17 9 22 -4 27 -9 3 -14 12 -11 20 6 14 -16 16 -29
3 -15 -15 -26 -6 -13 10 13 15 12 15 -12 0 -20 -13 -32 -15 -50 -8 l-24 10 23
7 c12 3 22 10 22 15 0 20 -27 7 -69 -33 -24 -23 -52 -43 -62 -45 -22 -3 -24 7
-6 27 9 11 8 11 -8 0 -11 -8 -24 -21 -28 -27 -13 -20 -29 -15 -22 7 5 16 3 19
-12 13 -16 -6 -17 -5 -3 12 13 16 13 18 0 13 -8 -2 -16 -14 -18 -26 -2 -12 -8
-22 -13 -22 -6 0 -7 5 -3 12 5 7 2 9 -9 5 -9 -3 -18 1 -21 10 -4 11 -2 14 9 9
8 -3 15 -1 15 4 0 6 -5 10 -11 10 -7 0 -9 10 -7 25 l5 25 -36 -20 -36 -21 27
25 c16 14 22 26 16 28 -6 2 -27 -12 -45 -33 -18 -20 -46 -39 -61 -42 l-27 -5
26 21 c15 12 30 32 34 45 3 12 14 22 23 22 15 0 15 -2 2 -11 -12 -8 -12 -10
-1 -7 8 2 15 14 16 26 l2 21 -29 -20 c-15 -11 -28 -25 -28 -30 0 -15 -51 -59
-68 -59 -9 0 -31 -14 -49 -32 -19 -19 -33 -26 -33 -18 0 9 -5 8 -15 -6 -16
-19 -16 -19 -13 1 2 11 13 24 26 30 28 12 28 21 1 28 -14 4 -18 10 -14 19 5 7
-6 -1 -24 -19 -18 -18 -38 -30 -45 -27 -8 3 -16 -2 -19 -10 -4 -9 -11 -16 -16
-16 -15 0 6 50 27 66 9 7 20 10 24 8 16 -10 41 50 44 106 4 64 -1 75 -16 35
-5 -14 -16 -25 -23 -25 -8 0 -19 -11 -25 -25 -6 -14 -16 -25 -22 -25 -14 0 5
37 37 71 16 17 21 29 14 33 -16 10 -14 36 3 36 8 0 17 7 20 16 5 13 4 14 -7 6
-8 -7 -17 -9 -20 -5 -4 3 -7 1 -7 -6 0 -7 -4 -9 -10 -6 -5 3 -17 -3 -27 -15
-10 -11 -26 -20 -37 -20 -17 0 -18 2 -4 18 8 9 18 27 20 39 5 20 4 21 -18 11
-13 -6 -24 -14 -24 -18 0 -11 -62 -70 -74 -70 -6 0 -5 5 2 12 22 22 12 32 -10
12 -13 -11 -36 -29 -53 -39 -61 -38 -5 13 65 59 38 25 72 51 76 57 4 7 3 9 -4
5 -6 -3 -13 -2 -17 4 -3 5 -23 10 -44 10 -29 0 -42 -6 -53 -22 -11 -17 -16
-19 -23 -8 -5 9 -4 11 3 6 7 -4 12 -1 12 8 0 27 -23 18 -61 -24 -20 -22 -42
-40 -50 -40 -8 0 -5 8 8 23 26 29 40 52 25 43 -6 -4 -41 -47 -78 -97 -45 -61
-70 -87 -77 -80 -7 7 -2 23 15 48 68 104 80 134 47 126 -10 -3 -19 -9 -19 -14
0 -5 -5 -9 -10 -9 -7 0 -7 6 0 20 14 27 -2 26 -18 -1 -7 -12 -16 -18 -19 -15
-3 3 0 12 7 21 7 8 10 15 8 15 -3 0 -25 -25 -49 -56z m266 -19 c-16 -13 -32
-22 -34 -19 -3 3 1 9 8 13 7 5 11 13 8 18 -3 5 6 10 21 11 l27 1 -30 -24z
m211 -30 c-4 -14 -11 -25 -17 -25 -6 0 -7 5 -2 13 8 12 10 18 12 39 0 6 4 9 7
5 4 -3 4 -18 0 -32z m-436 4 c-7 -11 -14 -18 -17 -15 -3 3 0 12 7 21 18 21 23
19 10 -6z m-48 -71 c-7 -7 -12 -19 -12 -28 0 -8 -9 -21 -20 -27 -16 -11 -15
-6 7 32 15 24 29 42 32 39 3 -2 -1 -10 -7 -16z m138 18 c0 -2 -8 -10 -17 -17
-16 -13 -17 -12 -4 4 13 16 21 21 21 13z m363 -53 c-4 -11 -3 -14 5 -9 7 4 12
3 12 -2 0 -6 -7 -12 -15 -16 -11 -4 -15 1 -15 19 0 14 4 25 10 25 5 0 6 -7 3
-17z m-499 -41 c-6 -4 -17 -18 -23 -30 -7 -13 -15 -21 -18 -18 -8 8 26 56 40
56 8 0 9 -3 1 -8z m1134 -82 c-14 -22 -24 -19 -15 5 4 8 11 15 17 15 6 0 6 -7
-2 -20z m-478 6 c0 -3 -4 -8 -10 -11 -5 -3 -10 -1 -10 4 0 6 5 11 10 11 6 0
10 -2 10 -4z m40 -5 c0 -5 -7 -12 -16 -15 -14 -5 -15 -4 -4 9 14 17 20 19 20
6z m120 -15 c0 -2 -8 -10 -17 -17 -16 -13 -17 -12 -4 4 13 16 21 21 21 13z
m-177 -26 c-5 -19 -23 -39 -23 -25 0 9 20 45 24 45 2 0 2 -9 -1 -20z m237 10
c-20 -13 -33 -13 -25 0 3 6 14 10 23 10 15 0 15 -2 2 -10z m80 -13 c-8 -7 -16
-23 -18 -37 -1 -14 -9 -30 -17 -36 -9 -6 -13 -18 -10 -26 4 -9 -4 -22 -19 -32
-26 -17 -36 -10 -15 11 6 6 13 31 15 55 1 24 3 46 3 49 1 8 43 28 61 28 13 0
13 -1 0 -12z m74 4 c3 -4 -6 -13 -19 -19 -28 -13 -31 -9 -12 13 14 17 24 18
31 6z m-915 -57 c-6 -7 -15 -11 -21 -8 -5 3 -4 12 3 20 6 7 15 11 21 8 5 -3 4
-12 -3 -20z m861 -10 c0 -2 -7 -4 -15 -4 -8 0 -15 4 -15 10 0 5 7 7 15 4 8 -4
15 -8 15 -10z m-106 -21 c-4 -16 -13 -35 -21 -43 -14 -13 -15 -12 -10 13 2 17
1 25 -4 20 -5 -5 -11 -19 -14 -31 -6 -32 -14 -42 -33 -42 -15 1 -14 3 3 16 11
8 19 22 17 30 -2 8 4 24 13 36 8 13 15 19 15 15 0 -5 8 -3 18 2 23 14 23 14
16 -16z m-807 0 c-13 -16 -13 -20 0 -31 12 -12 12 -16 -3 -33 -20 -22 -13 -25
16 -7 28 18 36 3 15 -28 -9 -15 -12 -23 -6 -20 6 4 11 2 11 -5 0 -10 3 -10 12
-1 16 16 28 15 28 -2 0 -18 39 -13 52 6 6 8 7 0 3 -22 -13 -76 -7 -102 20 -80
13 11 14 8 8 -21 -6 -33 -5 -33 13 -17 19 16 19 16 16 -24 -3 -28 -1 -39 7
-34 7 5 11 -1 11 -15 l0 -22 25 23 c34 32 34 6 0 -40 -14 -18 -22 -36 -19 -39
3 -3 9 1 14 9 13 21 12 7 -2 -27 -6 -15 -12 -34 -14 -42 -1 -7 -8 -19 -14 -25
-9 -8 -11 -6 -6 10 12 39 9 88 -7 126 -8 20 -13 39 -10 41 2 3 -2 13 -11 24
-8 10 -39 48 -68 85 -29 37 -77 86 -107 109 l-53 42 27 14 c15 8 24 17 21 20
-3 3 -17 -2 -31 -11 -23 -15 -28 -15 -56 -1 -17 9 -29 18 -27 19 13 11 49 26
44 18 -9 -15 72 -11 85 4 6 8 14 14 17 14 3 0 -2 -8 -11 -17z m1233 2 c7 -9 8
-15 2 -15 -5 0 -12 7 -16 15 -3 8 -4 15 -2 15 2 0 9 -7 16 -15z m209 -61 c2
-2 -5 -4 -16 -4 -12 0 -23 7 -27 15 -5 13 -2 14 17 4 12 -6 24 -13 26 -15z
m-675 -56 c-3 -4 -9 -8 -15 -8 -5 0 -9 4 -9 8 0 5 7 9 15 9 8 0 12 -4 9 -9z
m570 -42 c14 -27 26 -52 26 -55 0 -3 -17 -19 -37 -35 -20 -16 -33 -25 -30 -19
4 6 1 13 -6 16 -7 2 -18 -6 -24 -19 -7 -16 -8 -24 -1 -24 6 0 7 -7 4 -15 -3
-8 -9 -22 -13 -32 -4 -11 -3 -14 6 -8 10 6 11 3 2 -14 -13 -24 -23 -28 -15 -6
4 8 1 15 -7 15 -7 0 -9 3 -6 7 4 3 2 12 -4 20 -9 10 -7 13 7 13 16 0 17 2 4
10 -11 7 -23 2 -44 -18 -19 -17 -27 -21 -23 -10 7 20 -19 33 -27 12 -3 -8 -16
-14 -28 -13 l-23 0 23 11 c12 6 22 15 22 20 0 5 -4 6 -10 3 -5 -3 -10 -1 -10
4 0 6 10 12 23 12 16 1 18 2 5 6 -10 2 -18 8 -18 13 0 15 49 66 50 51 0 -8 7
-11 21 -8 17 5 18 3 8 -9 -6 -8 -9 -17 -6 -21 4 -3 15 5 26 18 17 21 21 22 37
9 16 -14 17 -13 11 10 -4 14 -10 35 -13 48 -4 13 -2 22 5 22 6 0 8 8 4 18 -3
9 7 0 21 -20 33 -47 39 -48 20 -3 -27 66 -18 62 20 -9z m-629 14 c-3 -5 -1
-10 6 -10 7 0 5 -8 -7 -21 -10 -11 -20 -16 -22 -10 -4 11 15 51 24 51 3 0 2
-4 -1 -10z m534 -24 c9 -11 8 -15 -5 -20 -21 -8 -34 1 -27 19 7 19 17 19 32 1z
m391 -46 c-6 -11 -13 -20 -16 -20 -2 0 0 9 6 20 6 11 13 20 16 20 2 0 0 -9 -6
-20z m-509 -33 c-10 -9 -11 -8 -5 6 3 10 9 15 12 12 3 -3 0 -11 -7 -18z m549
20 c0 -2 -12 -14 -27 -28 -20 -18 -24 -19 -13 -4 18 24 40 42 40 32z m-1126
-39 c-6 -10 -4 -10 7 0 31 29 38 8 14 -43 -13 -26 -20 -31 -40 -27 -29 5 -32
27 -9 60 16 23 40 31 28 10z m527 -31 c-8 -8 -11 -7 -11 4 0 20 13 34 18 19 3
-7 -1 -17 -7 -23z m152 -57 c-3 -10 -14 -22 -24 -25 -10 -4 -19 -15 -19 -25 0
-21 -27 -36 -71 -39 -13 -1 -18 -5 -13 -13 4 -7 3 -9 -1 -5 -12 11 -15 37 -4
37 5 0 9 9 9 19 0 14 13 24 45 36 25 10 50 24 56 31 15 18 28 9 22 -16z m-783
-60 c-16 -14 -30 -30 -30 -37 0 -7 -10 -17 -22 -24 -17 -9 -20 -9 -15 2 3 8 8
23 12 34 6 18 5 18 -5 2 -6 -9 -15 -15 -21 -12 -18 12 -8 38 28 71 l37 34 23
-22 24 -23 -31 -25z m80 31 c0 -5 -16 -19 -35 -31 -41 -25 -59 -52 -44 -67 6
-6 4 -15 -7 -24 -10 -8 -15 -9 -11 -2 4 6 2 13 -4 15 -17 6 6 46 49 86 36 32
52 40 52 23z m-262 -96 c-35 -49 -89 -108 -94 -103 -2 3 13 23 33 44 21 22 47
59 58 82 12 25 21 35 23 26 2 -9 -7 -31 -20 -49z m46 43 c-6 -20 -5 -21 10 -9
14 12 16 12 10 -3 -3 -9 -10 -16 -14 -16 -14 0 -21 17 -14 34 9 24 16 19 8 -6z
m736 -3 c7 -8 8 -15 2 -15 -5 0 -15 7 -22 15 -7 8 -8 15 -2 15 5 0 15 -7 22
-15z m49 -64 c16 -16 17 -21 5 -25 -7 -3 -13 -2 -13 2 4 22 -3 24 -17 4 -10
-14 -22 -21 -31 -18 -10 4 -13 2 -10 -8 6 -15 -61 -92 -71 -81 -3 3 6 18 21
33 14 15 29 40 33 55 5 20 10 25 17 18 15 -15 30 -14 24 3 -3 7 0 19 6 25 14
14 14 14 36 -8z m-589 0 c0 -5 -7 -12 -16 -15 -14 -5 -15 -4 -4 9 14 17 20 19
20 6z m491 -23 c-9 -24 -41 -57 -41 -43 0 4 -7 2 -15 -5 -21 -17 -20 3 1 40
12 19 23 26 35 23 11 -3 19 0 19 8 0 7 2 10 5 7 3 -3 1 -16 -4 -30z m-31 -61
c0 -2 -12 -14 -26 -28 -25 -22 -26 -23 -15 -2 9 18 19 26 39 32 1 1 2 0 2 -2z
m130 -22 c-7 -8 -17 -15 -23 -15 -6 0 -2 8 9 19 22 21 33 19 14 -4z m-843 -53
c-41 -41 -47 -44 -47 -24 0 12 4 22 9 22 4 0 23 13 42 29 52 46 49 26 -4 -27z
m-337 38 c0 -5 -5 -10 -11 -10 -5 0 -7 5 -4 10 3 6 8 10 11 10 2 0 4 -4 4 -10z
m40 -4 c0 -2 -7 -6 -15 -10 -8 -3 -15 -1 -15 4 0 6 7 10 15 10 8 0 15 -2 15
-4z m1100 0 c0 -2 -8 -10 -17 -17 -16 -13 -17 -12 -4 4 13 16 21 21 21 13z
m-714 -31 c-8 -8 -18 -15 -22 -15 -3 0 -1 7 6 15 7 8 17 15 22 15 5 0 3 -7 -6
-15z m-46 -16 c-7 -11 -14 -19 -16 -16 -7 7 7 37 17 37 6 0 5 -9 -1 -21z m810
17 c0 -2 -8 -10 -17 -17 -16 -13 -17 -12 -4 4 13 16 21 21 21 13z m-840 -43
c0 -5 -13 -17 -28 -27 l-27 -19 24 26 c26 28 31 32 31 20z m40 3 c0 -2 -8 -10
-17 -17 -16 -13 -17 -12 -4 4 13 16 21 21 21 13z m-490 -61 c5 3 10 0 11 -7 0
-10 2 -10 6 0 9 23 24 12 21 -15 -2 -20 1 -27 11 -25 8 2 11 -3 8 -12 -4 -10
3 -21 21 -31 26 -15 26 -16 2 -9 -22 6 -23 5 -11 -10 12 -14 11 -16 -3 -16 -9
0 -16 7 -16 15 0 9 -7 18 -16 22 -8 3 -13 12 -10 19 3 7 1 16 -5 19 -5 4 -8 1
-7 -7 2 -7 -8 -14 -22 -16 -14 -2 -31 -9 -37 -14 -19 -16 -17 12 3 33 12 13
13 22 5 37 -12 23 -3 36 15 21 7 -6 18 -8 24 -4z m-70 -54 c0 -10 -7 -24 -15
-31 -11 -9 -15 -9 -15 -1 0 7 -5 9 -11 6 -7 -5 -4 -14 8 -28 9 -12 11 -16 3
-9 -8 6 -23 12 -34 12 -12 0 -39 7 -61 15 l-40 16 57 -4 c47 -3 55 -1 51 12
-3 10 -1 12 4 6 15 -18 33 -15 33 5 0 11 5 20 10 20 6 0 10 -8 10 -19z m480
-26 c0 -9 -62 -75 -71 -75 -22 0 -6 29 29 53 41 28 42 29 42 22z m25 -35 c-15
-17 -16 -23 -5 -50 12 -29 11 -33 -15 -60 -32 -33 -59 -42 -30 -10 19 21 7 28
-13 8 -7 -7 -12 -8 -12 -2 0 6 13 23 30 39 16 16 28 30 26 32 -2 2 -17 -8 -32
-22 -26 -24 -29 -25 -33 -9 -2 12 12 32 40 56 47 40 74 51 44 18z m-1156 -22
c13 -5 22 -11 19 -13 -3 -3 -25 4 -49 15 -41 19 -22 18 30 -2z m2101 18 c0 -1
-15 -15 -32 -32 -18 -16 -27 -22 -20 -14 24 28 11 32 -23 6 -43 -33 -46 -26
-6 13 17 17 40 29 55 29 14 0 26 -1 26 -2z m-1211 -22 c2 -2 -16 -4 -42 -4
-25 0 -52 -3 -61 -6 -9 -3 -16 -1 -16 4 0 6 8 13 18 15 17 4 93 -3 101 -9z
m1261 1 c-7 -8 -9 -15 -5 -15 5 0 -11 -13 -33 -30 -45 -32 -52 -35 -52 -20 0
19 63 80 82 80 17 0 18 -3 8 -15z m-2085 -46 c-4 -5 1 -9 9 -9 8 0 18 -4 21
-10 11 -18 -21 -10 -43 10 -28 27 -29 45 -2 30 11 -6 18 -15 15 -21z m2134 13
c10 6 26 8 36 4 17 -6 17 -7 0 -26 -10 -11 -23 -20 -28 -20 -6 0 -2 9 8 20 25
27 7 25 -22 -2 -19 -17 -23 -19 -17 -5 4 12 1 17 -11 17 -9 0 -14 -4 -10 -9 6
-11 -12 -24 -40 -28 -15 -2 -9 6 20 31 28 24 41 30 43 20 3 -10 7 -11 21 -2z
m-1514 -51 c14 -9 15 -11 3 -7 -10 3 -20 1 -23 -4 -3 -5 -16 -4 -31 2 -22 11
-24 13 -10 23 9 7 12 16 8 21 -4 5 2 2 13 -7 11 -9 29 -22 40 -28z m325 29 c0
-5 -5 -10 -11 -10 -5 0 -7 5 -4 10 3 6 8 10 11 10 2 0 4 -4 4 -10z m1359 -13
c8 -11 5 -13 -19 -9 -16 2 -27 8 -24 13 8 13 30 11 43 -4z m-2512 -11 c-3 -7
0 -19 6 -26 8 -9 5 -8 -10 1 -16 10 -19 16 -11 26 14 17 22 17 15 -1z m925
-77 c2 -8 -5 -14 -15 -14 -10 0 -22 -7 -27 -15 -5 -8 -12 -11 -16 -7 -4 4 0
15 9 25 10 11 14 26 10 40 -3 12 1 29 8 38 12 15 14 13 21 -18 4 -20 8 -42 10
-49z m368 51 c0 -11 -7 -23 -15 -27 -25 -9 -30 5 -9 26 24 25 24 25 24 1z
m-463 -16 c-9 -9 -28 6 -21 18 4 6 10 6 17 -1 6 -6 8 -13 4 -17z m1513 23 c0
-2 -9 -12 -20 -22 -24 -21 -27 -14 -4 9 15 15 24 20 24 13z m-1550 -38 c0 -20
-5 -29 -16 -29 -11 0 -14 5 -10 16 4 9 2 22 -3 28 -7 8 -4 12 10 13 15 1 19
-5 19 -28z m555 11 c-3 -5 -11 -10 -16 -10 -6 0 -7 5 -4 10 3 6 11 10 16 10 6
0 7 -4 4 -10z m855 5 c0 -2 -10 -10 -22 -16 -21 -11 -22 -11 -9 4 13 16 31 23
31 12z m140 -21 c-8 -8 -23 -20 -34 -25 -13 -6 -10 0 9 15 34 29 43 33 25 10z
m-1576 -75 c-8 -13 -21 -11 -27 5 -4 10 0 12 14 9 10 -3 16 -9 13 -14z m1816
17 c0 -3 -4 -8 -10 -11 -5 -3 -10 -1 -10 4 0 6 5 11 10 11 6 0 10 -2 10 -4z
m-410 -31 c-7 -8 -17 -15 -22 -15 -11 0 14 29 26 30 5 0 3 -7 -4 -15z m-1944
-63 c-12 -11 -17 7 -9 34 l8 29 3 -28 c2 -16 1 -31 -2 -35z m2308 43 c-4 -8
-11 -15 -16 -15 -6 0 -5 6 2 15 7 8 14 15 16 15 2 0 1 -7 -2 -15z m-984 -5 c0
-5 -4 -10 -10 -10 -5 0 -10 5 -10 10 0 6 5 10 10 10 6 0 10 -4 10 -10z m53
-14 c4 -10 0 -12 -15 -8 -15 4 -17 7 -6 13 17 11 15 11 21 -5z m63 -10 c-4
-17 -1 -26 11 -30 16 -6 32 8 34 29 0 6 4 2 8 -8 6 -17 8 -17 34 3 25 20 27
20 27 3 -1 -10 -11 -31 -24 -47 -21 -25 -26 -27 -46 -16 -12 6 -24 9 -26 7 -3
-3 -16 6 -30 20 -24 24 -24 26 -8 44 23 25 27 24 20 -5z m704 21 c0 -2 -10
-12 -22 -23 l-23 -19 19 23 c18 21 26 27 26 19z m-876 -102 c10 -55 -8 -33
-23 27 -6 26 -11 53 -11 60 1 21 26 -44 34 -87z m-349 19 l-15 -39 6 40 c6 44
16 65 21 49 2 -6 -4 -28 -12 -50z m1044 39 c-12 -15 -12 -16 6 -9 14 5 17 4 9
-4 -6 -6 -19 -8 -29 -4 -17 7 -17 8 1 21 24 18 29 16 13 -4z m-730 -36 c0 -12
-3 -16 -6 -9 -2 6 -13 12 -24 12 -18 0 -26 20 -13 33 13 12 44 -14 43 -36z
m1091 29 c0 -2 -8 -10 -17 -17 -16 -13 -17 -12 -4 4 13 16 21 21 21 13z
m-2154 -51 c9 -20 14 -38 11 -41 -6 -6 -37 49 -37 66 0 19 9 10 26 -25z m-557
6 c-40 -30 -63 -38 -89 -30 l-25 7 25 2 c44 3 59 8 76 24 8 9 20 16 26 16 6 0
0 -8 -13 -19z m1924 -19 c-6 -24 -23 -30 -23 -9 0 13 21 39 26 34 2 -2 1 -13
-3 -25z m-1786 -29 c-3 -10 -5 -2 -5 17 0 19 2 27 5 18 2 -10 2 -26 0 -35z
m368 18 c3 -5 1 -12 -5 -16 -5 -3 -10 1 -10 9 0 18 6 21 15 7z m1063 -13 c12
-16 -2 -58 -20 -57 -10 0 -10 2 0 6 20 8 14 20 -13 27 -32 8 -33 36 -1 36 13
0 28 -6 34 -12z m817 -8 c-3 -5 -16 -15 -28 -21 -21 -10 -21 -9 2 10 25 23 36
27 26 11z m-694 -47 c-9 -16 -10 -15 -11 8 0 14 3 29 8 33 12 12 14 -22 3 -41z
m442 -14 c-13 -13 15 -48 34 -41 7 2 11 -5 10 -17 -1 -23 -22 -28 -31 -8 -3 6
-4 1 -3 -13 2 -20 -3 -26 -24 -28 -30 -3 -49 25 -24 34 20 8 19 24 -1 24 -24
0 -13 33 16 47 31 16 37 16 23 2z m-1951 -63 c-6 -10 -20 20 -21 44 0 8 6 4
13 -10 8 -14 12 -29 8 -34z m1869 12 c-22 -8 -37 -28 -22 -28 6 0 11 -9 11
-20 0 -23 -25 -18 -34 7 -8 20 46 77 56 60 4 -7 -1 -15 -11 -19z m-315 -99 c4
-31 11 -46 19 -43 6 3 12 -1 12 -9 0 -8 -7 -14 -16 -13 -15 1 -44 85 -57 161
-4 28 -3 28 16 -9 11 -21 23 -60 26 -87z m869 -44 c-22 -19 -46 -35 -54 -35
-18 0 -10 8 42 42 57 36 60 34 12 -7z m-51 17 c-6 -4 -14 -15 -17 -26 -6 -15
-10 -16 -23 -5 -14 12 -14 14 2 26 10 7 25 13 33 13 10 0 12 -3 5 -8z m-1280
-83 c-9 -124 -25 -153 -20 -37 4 88 9 118 21 118 3 0 2 -36 -1 -81z m535 37
c-3 -3 -11 5 -18 17 -13 21 -12 21 5 5 10 -10 16 -20 13 -22z m-575 -33 c-2
-21 -6 -68 -10 -105 -3 -38 -9 -68 -13 -68 -11 0 -1 183 11 198 15 18 16 16
12 -25z m-1802 5 c-7 -7 -12 -8 -12 -2 0 6 3 14 7 17 3 4 9 5 12 2 2 -3 -1
-11 -7 -17z m1462 -3 c3 -8 1 -15 -3 -15 -5 0 -11 7 -15 15 -3 8 -1 15 3 15 5
0 11 -7 15 -15z m1606 -9 c0 -3 -4 -8 -10 -11 -5 -3 -10 -1 -10 4 0 6 5 11 10
11 6 0 10 -2 10 -4z m-2190 -37 c0 -5 -8 -9 -17 -8 -11 0 -13 3 -5 6 6 2 9 10
6 15 -4 7 -2 8 4 4 7 -4 12 -11 12 -17z m76 -5 c-4 -9 -9 -15 -11 -12 -3 3 -3
13 1 22 4 9 9 15 11 12 3 -3 3 -13 -1 -22z m2014 -34 c0 -5 -8 -10 -17 -10
-15 0 -16 2 -3 10 19 12 20 12 20 0z m-2450 -20 c0 -5 -5 -10 -11 -10 -5 0 -7
5 -4 10 3 6 8 10 11 10 2 0 4 -4 4 -10z m2530 -25 c0 -7 -92 -59 -109 -62 -8
-1 -18 -8 -22 -15 -5 -7 -9 -9 -9 -4 0 4 -12 1 -26 -9 -37 -24 -38 -14 -3 24
24 26 41 35 77 39 26 3 53 11 60 19 13 13 32 18 32 8z m-2120 -15 c0 -5 -4
-10 -10 -10 -5 0 -10 5 -10 10 0 6 5 10 10 10 6 0 10 -4 10 -10z m267 -36
c-10 -10 -189 -54 -198 -49 -4 3 -10 -1 -12 -7 -4 -8 -6 -9 -6 -2 -1 6 6 17
14 24 22 18 220 51 202 34z m1843 1 c0 -2 -18 -14 -40 -25 -22 -11 -40 -18
-40 -15 0 2 17 13 38 24 42 23 42 23 42 16z m-3125 -15 c-3 -5 -16 -15 -28
-21 -22 -12 -22 -12 -3 10 19 21 43 30 31 11z m1455 -35 c26 -16 41 -21 46
-14 4 8 9 7 15 -2 7 -11 9 -11 9 1 0 13 1 13 10 0 6 -10 4 -20 -6 -31 -10 -11
-12 -19 -5 -24 6 -3 11 -1 11 4 0 18 20 12 52 -14 l29 -25 -25 -11 c-26 -12
-96 -4 -96 11 0 5 7 7 15 4 31 -12 13 8 -20 21 -33 15 -67 55 -45 55 21 0 9
18 -22 34 -18 8 -27 16 -20 16 7 0 30 -11 52 -25z m-1436 -7 c-5 -7 -9 -15
-10 -18 -6 -30 -17 -38 -35 -27 -19 11 -18 13 13 39 34 27 47 30 32 6z m1335
15 c-3 -21 2 -33 15 -33 8 0 17 -4 20 -8 3 -4 -8 -7 -25 -6 -16 1 -32 -2 -35
-7 -3 -5 0 -9 6 -9 6 0 31 -9 56 -21 35 -16 43 -23 35 -33 -16 -19 -61 -8 -61
15 0 21 -8 23 -30 9 -10 -6 -11 -10 -2 -10 22 0 12 -30 -14 -40 -30 -12 -57
-13 -51 -2 7 11 -11 52 -23 52 -5 0 -10 -16 -10 -35 0 -24 -5 -35 -15 -36 -17
-2 -34 -5 -37 -9 -2 -1 -11 -3 -20 -5 -12 -2 -18 3 -18 17 0 13 -5 18 -14 15
-16 -6 -49 25 -52 50 -2 9 -9 20 -16 24 -10 7 -9 9 5 9 9 0 17 6 17 14 0 15
27 21 131 31 63 6 67 6 74 -17 7 -22 7 -22 12 -3 3 11 10 25 15 30 8 7 8 5 3
-5 -6 -11 -2 -10 11 3 20 19 25 21 23 10z m1836 -8 c-27 -6 -61 -15 -75 -19
-23 -6 -24 -6 -5 5 21 14 76 27 110 27 11 0 -2 -6 -30 -13z m-175 -45 c0 -5
-3 -9 -7 -8 -5 1 -18 -3 -30 -10 -16 -9 -24 -9 -29 0 -4 6 -3 8 4 4 6 -3 17 0
24 8 15 17 38 21 38 6z m-3310 -19 c-5 -11 -15 -23 -22 -27 -7 -5 -8 -2 -3 7
21 37 44 55 25 20z m3500 -71 c24 -47 26 -61 4 -34 -14 17 -15 17 -10 1 4 -11
2 -16 -5 -12 -5 4 -7 15 -4 25 3 11 1 28 -5 40 -6 11 -8 20 -6 20 3 0 15 -18
26 -40z m-1650 -19 c0 -20 -13 -41 -21 -35 -15 9 -10 44 6 44 8 0 15 -4 15 -9z
m-1340 -57 c0 -8 -7 -14 -16 -14 -9 0 -23 -8 -30 -17 -20 -27 -19 6 1 34 16
23 45 21 45 -3z m1255 2 c18 -13 18 -14 -3 -20 -15 -5 -30 -1 -48 13 l-27 21
30 0 c16 0 38 -6 48 -14z m65 -16 c0 -5 -2 -10 -4 -10 -3 0 -8 5 -11 10 -3 6
-1 10 4 10 6 0 11 -4 11 -10z m-1603 -6 c-3 -3 -12 -4 -19 -1 -8 3 -5 6 6 6
11 1 17 -2 13 -5z m369 -15 c4 -8 0 -9 -15 -4 -14 4 -21 2 -21 -6 0 -7 -3 -10
-6 -6 -9 9 5 27 21 27 8 0 17 -5 21 -11z m-121 -53 c33 -36 32 -42 -12 -49
-21 -4 -52 -9 -69 -13 -26 -5 -32 -2 -36 14 -4 16 -2 19 10 15 11 -5 14 -2 9
11 -4 10 -3 15 3 11 17 -11 11 7 -7 21 -15 10 -16 15 -5 25 10 11 12 10 12 -1
0 -7 3 -10 7 -7 3 4 13 1 22 -5 13 -10 14 -10 4 2 -39 43 21 20 62 -24z m-285
28 c0 -2 -7 -4 -15 -4 -8 0 -15 4 -15 10 0 5 7 7 15 4 8 -4 15 -8 15 -10z
m458 -9 c-25 -29 -30 -28 -21 3 3 13 13 22 24 22 18 0 17 -2 -3 -25z m-505
-26 c-7 -25 -30 -36 -46 -20 -8 8 -6 11 10 11 11 0 23 7 27 15 8 22 15 18 9
-6z m2040 -26 c-3 -27 -10 -52 -15 -58 -9 -10 -1 80 9 98 9 15 10 5 6 -40z
m1033 -29 c1 -7 -4 -10 -12 -7 -8 3 -14 9 -14 13 0 5 -3 17 -7 27 -6 17 -6 17
12 -1 11 -10 20 -25 21 -32z m-3096 -24 c0 -5 -2 -10 -4 -10 -3 0 -8 5 -11 10
-3 6 -1 10 4 10 6 0 11 -4 11 -10z m45 -18 c-3 -3 -11 0 -18 7 -9 10 -8 11 6
5 10 -3 15 -9 12 -12z m3073 -7 c-3 -3 -9 2 -12 12 -6 14 -5 15 5 6 7 -7 10
-15 7 -18z m-2410 -12 c5 -18 -10 -16 -34 2 -18 15 -18 15 5 13 14 -2 26 -9
29 -15z m97 -43 c7 -24 7 -24 -9 -5 -8 11 -16 27 -16 35 0 20 16 1 25 -30z
m2325 6 c0 -3 -4 -8 -10 -11 -5 -3 -10 -1 -10 4 0 6 5 11 10 11 6 0 10 -2 10
-4z m-2380 -49 c0 -5 -4 -5 -10 -2 -5 3 -10 14 -10 23 0 15 2 15 10 2 5 -8 10
-19 10 -23z m1155 3 c7 -22 -1 -40 -17 -40 -6 0 -8 10 -4 25 4 14 2 25 -4 25
-5 0 -10 -9 -10 -20 0 -11 -4 -20 -10 -20 -11 0 -14 33 -3 43 13 14 42 6 48
-13z m1161 -69 c23 -23 34 -59 15 -47 -5 4 -12 0 -14 -6 -3 -7 -6 -3 -6 10 -1
15 -5 21 -13 16 -8 -5 -9 -2 -5 9 4 10 2 16 -5 14 -7 -1 -12 5 -13 13 -1 8 -6
14 -13 13 -7 -2 -9 4 -5 14 5 12 3 14 -7 8 -9 -5 -11 -4 -6 3 4 7 2 12 -3 12
-6 0 -11 6 -11 13 0 6 14 -1 31 -18 16 -16 41 -41 55 -54z m-2876 64 c0 -3 -9
-16 -21 -28 l-21 -22 13 28 c11 23 29 37 29 22z m1359 -62 c-1 -50 -3 -61 -9
-43 -12 36 -12 110 0 110 6 0 10 -29 9 -67z m611 51 c0 -8 -4 -12 -10 -9 -5 3
-10 10 -10 16 0 5 5 9 10 9 6 0 10 -7 10 -16z m-510 -48 c0 -3 -4 -8 -10 -11
-5 -3 -10 -1 -10 4 0 6 5 11 10 11 6 0 10 -2 10 -4z m151 -21 c1 -17 -18 -17
-25 0 -4 11 -1 15 10 13 8 -2 15 -7 15 -13z m1396 -115 c1 -11 0 -20 -1 -20
-2 0 -11 9 -21 20 -18 19 -17 20 1 20 13 0 20 -7 21 -20z m-311 -124 c11 -18
13 -30 5 -43 -9 -17 -10 -17 -16 0 -8 19 -30 23 -41 6 -4 -7 0 -16 9 -21 10
-5 14 -15 10 -26 -6 -15 -5 -15 10 -3 15 12 17 12 11 -3 -7 -18 -53 -41 -62
-31 -3 3 2 13 11 23 19 21 22 32 7 32 -5 0 -10 -7 -10 -15 0 -8 -4 -15 -10
-15 -14 0 -13 13 2 28 10 10 10 15 -2 23 -13 8 -11 12 9 29 13 11 20 20 17 20
-4 0 -4 5 -1 10 11 17 34 11 51 -14z m-1038 -32 c-7 -7 -62 -13 -71 -7 -16 10
12 20 44 15 16 -2 28 -6 27 -8z m-1324 -78 c-3 -14 -10 -26 -15 -26 -5 0 -6 7
-4 15 3 8 7 22 10 31 9 27 17 9 9 -20z m1252 17 c7 -10 13 -25 13 -33 1 -10
-6 -6 -19 10 -11 14 -20 28 -20 33 0 12 12 8 26 -10z m1169 -113 c4 -6 10 -8
15 -5 5 3 11 1 14 -4 12 -19 -10 -19 -34 0 -14 10 -20 19 -13 19 6 0 15 -5 18
-10z m-50 -39 c6 -11 -33 -36 -42 -27 -7 7 16 36 28 36 4 0 10 -4 14 -9z m77
-63 c-6 -6 -16 -7 -22 -3 -9 6 -9 9 1 16 17 10 34 0 21 -13z m-1928 -20 c-23
-28 -37 -38 -43 -32 -6 6 40 54 52 54 6 0 2 -10 -9 -22z m1840 -3 c-4 -8 -11
-15 -16 -15 -6 0 -5 6 2 15 7 8 14 15 16 15 2 0 1 -7 -2 -15z m-1794 -1 c0
-11 -37 -53 -43 -48 -3 3 -17 -2 -31 -11 -38 -25 -32 -7 12 31 34 30 62 43 62
28z m536 -101 c-10 -26 -18 -8 -9 23 5 21 8 24 11 11 2 -10 1 -25 -2 -34z
m-543 10 c-7 -21 -33 -53 -43 -53 -4 0 -7 8 -7 18 0 21 25 52 43 52 8 0 11 -7
7 -17z m-311 -143 c-6 -43 -12 -37 -12 13 0 25 4 37 8 29 5 -7 7 -26 4 -42z
m178 6 c0 -9 -99 -76 -111 -76 -8 1 0 8 16 17 17 9 44 26 60 39 31 25 35 27
35 20z m-676 -101 c-10 -19 -22 -35 -27 -35 -5 0 2 18 14 40 28 49 40 44 13
-5z m-124 21 c0 -3 -4 -8 -10 -11 -5 -3 -10 -1 -10 4 0 6 5 11 10 11 6 0 10
-2 10 -4z m224 -47 c-9 -11 -19 -17 -21 -15 -8 7 21 45 30 39 4 -3 1 -14 -9
-24z m575 -68 c-47 -43 -134 -90 -186 -102 -39 -8 -35 4 7 21 16 7 27 17 23
23 -3 6 -1 7 5 3 12 -7 87 28 142 68 53 38 58 31 9 -13z m-788 -54 c-10 -9
-11 -8 -5 6 3 10 9 15 12 12 3 -3 0 -11 -7 -18z m436 -19 c-3 -8 -6 -5 -6 6
-1 11 2 17 5 13 3 -3 4 -12 1 -19z m20 -88 c1 -22 -2 -42 -8 -45 -5 -4 -9 13
-9 39 0 56 15 61 17 6z m2983 20 c0 -5 -5 -10 -11 -10 -5 0 -7 5 -4 10 3 6 8
10 11 10 2 0 4 -4 4 -10z m13 -32 c-75 -98 -126 -158 -130 -154 -11 11 109
162 131 165 5 1 4 -5 -1 -11z m-43 -1 c0 -2 -16 -18 -35 -37 -19 -19 -35 -31
-35 -27 0 3 15 20 33 36 31 30 37 34 37 28z m-89 -90 c-10 -9 -11 -8 -5 6 3
10 9 15 12 12 3 -3 0 -11 -7 -18z m-351 -27 c0 -5 -5 -10 -11 -10 -5 0 -7 5
-4 10 3 6 8 10 11 10 2 0 4 -4 4 -10z m-338 -12 c9 0 24 -11 33 -25 9 -13 19
-22 22 -19 11 11 43 -15 43 -34 0 -29 -25 -25 -49 8 -15 20 -20 23 -21 10 0
-16 37 -52 63 -61 7 -2 8 -8 4 -13 -14 -14 -61 20 -79 56 -9 19 -17 29 -18 23
0 -8 -17 -14 -47 -15 l-48 -1 55 -6 55 -6 -65 -24 c-75 -28 -65 -41 12 -16 44
14 52 14 67 2 9 -8 30 -22 47 -30 29 -15 65 -77 44 -77 -5 0 -11 14 -15 30 -5
23 -12 30 -30 30 -12 0 -33 11 -46 25 l-24 24 -39 -37 c-21 -20 -35 -31 -31
-23 9 15 9 15 -59 -27 -21 -13 -35 -18 -30 -10 6 11 5 11 -8 0 -13 -10 -17
-10 -22 4 -8 22 -8 36 2 30 9 -5 36 15 39 30 1 7 -5 11 -14 10 -14 -1 -16 9
-14 59 1 33 6 63 9 67 13 13 86 26 117 21 17 -3 38 -5 47 -5z m134 -19 c11 -9
12 -14 3 -19 -8 -5 -5 -14 10 -29 22 -22 28 -65 11 -76 -15 -9 -49 31 -44 52
6 20 -29 63 -50 63 -8 0 -17 7 -20 16 -5 14 0 16 34 11 23 -3 48 -11 56 -18z
m194 -3 c0 -2 -7 -9 -15 -16 -13 -11 -14 -10 -9 4 5 14 24 23 24 12z m170 -4
c0 -5 -7 -9 -15 -9 -8 0 -12 4 -9 9 3 4 9 8 15 8 5 0 9 -4 9 -8z m30 -26 c0
-3 -4 -8 -10 -11 -5 -3 -10 -1 -10 4 0 6 5 11 10 11 6 0 10 -2 10 -4z m-22
-38 c-2 -6 -13 -12 -24 -14 -19 -3 -19 -3 0 12 24 17 29 18 24 2z m36 -24 c-7
-37 -30 -68 -43 -60 -6 4 0 24 17 51 30 49 35 51 26 9z m-2558 -29 c-3 -9 -11
-13 -16 -10 -8 5 -7 11 1 21 14 18 24 11 15 -11z m2218 -20 c-3 -20 1 -28 18
-35 13 -5 18 -9 11 -9 -6 -1 -13 -13 -15 -28 -3 -26 -4 -26 -32 18 -23 35 -24
40 -8 25 12 -11 22 -14 22 -9 0 6 -7 16 -16 24 -14 12 -14 14 2 26 23 17 23
17 18 -12z m-141 -23 c22 -13 36 -26 33 -29 -3 -3 5 -14 17 -25 12 -11 16 -17
10 -13 -16 8 -16 -3 -2 -44 6 -17 15 -31 20 -31 5 0 9 -14 9 -31 0 -16 -4 -28
-9 -25 -5 3 -11 -3 -14 -14 -7 -27 -37 -15 -36 14 0 17 2 18 7 4 6 -15 8 -14
18 6 10 21 9 23 -10 19 -16 -4 -17 -2 -7 5 10 7 10 11 1 17 -9 6 -9 10 1 16
11 7 10 9 -3 9 -10 0 -18 4 -18 9 0 5 -9 11 -20 14 -11 3 -20 1 -20 -3 0 -5 8
-11 18 -13 14 -4 14 -5 1 -6 -9 0 -22 6 -30 15 -11 13 -10 19 1 37 12 20 12
21 -3 9 -17 -14 -37 -9 -37 10 0 5 7 8 15 4 10 -3 15 1 15 13 0 23 -25 46 -35
31 -3 -5 -10 -10 -16 -10 -5 0 1 11 13 25 11 13 26 21 32 18 6 -4 28 -17 49
-31z m-2393 14 c0 -2 -13 -19 -30 -37 -21 -24 -30 -29 -30 -17 0 9 12 26 26
37 26 21 34 25 34 17z m310 -20 c0 -8 -7 -19 -15 -26 -13 -10 -15 -9 -15 12 0
14 3 28 6 31 9 9 24 -2 24 -17z m2211 -64 c7 -8 6 -18 -4 -33 -10 -13 -17 -16
-22 -10 -3 6 -2 11 4 11 5 0 8 8 6 18 -2 9 -4 19 -4 22 -1 3 -6 -2 -12 -10 -9
-13 -10 -12 -5 3 3 10 -1 30 -10 45 -15 26 -15 25 10 -3 15 -16 31 -36 37 -43z
m-389 -23 c-21 -25 -23 -24 -12 5 5 13 6 28 2 32 -4 5 1 3 10 -4 16 -12 16
-15 0 -33z m175 24 c2 -6 -3 -13 -12 -16 -10 -5 -15 0 -15 14 0 21 21 22 27 2z
m553 7 c0 -5 -8 -10 -17 -10 -15 0 -16 2 -3 10 19 12 20 12 20 0z m-140 -5 c0
-3 -7 -17 -16 -30 -9 -13 -13 -29 -9 -35 3 -5 0 -12 -7 -15 -8 -3 -14 -15 -15
-26 -2 -26 -9 -33 -23 -24 -8 5 -8 10 0 20 7 8 9 19 5 25 -3 5 1 10 11 10 15
0 15 2 0 25 -13 20 -14 25 -2 25 7 0 19 7 26 15 12 15 30 20 30 10z m-150 -15
c0 -5 -5 -10 -11 -10 -5 0 -7 5 -4 10 3 6 8 10 11 10 2 0 4 -4 4 -10z m240
-10 c0 -5 -5 -10 -11 -10 -5 0 -7 5 -4 10 3 6 8 10 11 10 2 0 4 -4 4 -10z
m-2490 -10 c0 -5 -5 -10 -11 -10 -5 0 -7 5 -4 10 3 6 8 10 11 10 2 0 4 -4 4
-10z m350 0 c8 -5 11 -12 8 -16 -4 -3 -14 1 -23 10 -18 17 -9 21 15 6z m-100
-20 c-6 -11 -12 -20 -14 -20 -2 0 -2 9 1 20 3 11 9 20 15 20 5 0 4 -9 -2 -20z
m2034 -1 c8 -12 18 -19 23 -16 5 3 8 -6 8 -21 -1 -15 4 -37 11 -49 12 -18 11
-21 -4 -19 -9 2 -17 9 -17 17 0 8 -10 15 -23 17 -12 2 -20 8 -17 13 4 5 2 9
-3 9 -6 0 -13 11 -16 25 -4 14 -11 25 -16 25 -6 0 -10 5 -10 10 0 19 49 10 64
-11z m-2084 -9 c0 -5 -5 -10 -11 -10 -5 0 -7 5 -4 10 3 6 8 10 11 10 2 0 4 -4
4 -10z m-40 -8 c0 -4 -5 -13 -12 -20 -9 -9 -9 -12 3 -12 11 0 16 -10 16 -31
l0 -31 -19 38 c-18 38 -18 64 2 64 5 0 10 -4 10 -8z m187 -7 c14 -10 26 -34
33 -71 10 -47 14 -54 31 -49 16 5 19 1 19 -29 0 -37 -12 -44 -40 -26 -13 8
-12 10 3 10 13 0 15 3 7 13 -6 6 -20 27 -30 45 -13 21 -27 32 -43 32 -27 0
-77 21 -77 33 0 4 7 19 16 32 19 28 49 32 81 10z m-297 -21 c0 11 3 17 6 13 9
-9 -16 -77 -28 -77 -10 0 -8 -19 8 -82 5 -23 3 -28 -12 -29 -17 -1 -17 -2 -1
-6 9 -2 17 -11 17 -18 0 -25 83 -104 135 -129 44 -21 51 -23 62 -10 7 10 13
12 18 5 3 -6 26 -11 51 -11 24 0 44 -4 44 -10 0 -13 -70 -13 -90 0 -8 5 -19 5
-25 0 -8 -7 -120 -7 -192 -1 -7 1 -13 9 -13 20 0 10 -7 24 -15 31 -10 9 -15 9
-15 1 0 -6 5 -11 10 -11 6 0 10 -10 10 -21 0 -20 -4 -21 -46 -16 -52 5 -107
49 -130 104 -17 40 -18 83 -1 83 9 0 9 2 -1 8 -10 7 -8 18 9 50 25 45 35 52
41 25 2 -10 7 6 11 35 4 29 12 50 16 48 5 -3 7 -18 4 -33 l-3 -28 10 25 c11
24 27 40 43 40 4 0 5 -17 2 -37 -5 -37 -5 -37 6 -9 9 22 14 25 21 15 7 -10 8
-9 4 5 -9 26 14 39 31 18 11 -16 12 -15 13 2z m180 12 c0 -13 -28 -55 -33 -49
-12 11 -8 41 6 46 16 7 27 8 27 3z m-140 -56 c0 -10 11 -32 25 -47 l24 -28 -9
35 c-13 45 -13 70 0 70 6 0 10 -14 10 -31 0 -17 5 -39 10 -49 6 -10 13 -42 16
-69 4 -42 3 -51 -10 -51 -9 0 -24 9 -33 20 -10 11 -25 20 -35 20 -10 0 -20 10
-24 25 -8 34 5 137 17 130 5 -4 9 -15 9 -25z m1880 -14 c0 -7 -7 -19 -15 -26
-12 -10 -15 -9 -15 7 0 11 3 23 7 26 11 12 23 8 23 -7z m113 -65 c-23 -30 -36
-33 -41 -10 -1 8 8 21 22 28 15 9 23 20 19 30 -3 11 -1 11 7 -3 10 -15 9 -23
-7 -45z m69 17 c-7 -7 -12 -8 -12 -2 0 14 12 26 19 19 2 -3 -1 -11 -7 -17z
m-1901 -14 c7 -9 21 -13 33 -10 14 3 33 -6 56 -25 19 -16 29 -29 23 -29 -6 0
-16 7 -23 15 -7 8 -20 15 -28 15 -12 0 -11 -4 6 -16 31 -21 19 -34 -33 -34
-39 0 -45 3 -64 36 -12 19 -21 42 -21 50 0 19 34 18 51 -2z m1709 -8 c0 -3 -4
-8 -10 -11 -5 -3 -10 -1 -10 4 0 6 5 11 10 11 6 0 10 -2 10 -4z m-1732 -109
c-29 -11 -38 0 -38 45 l0 41 28 -39 c27 -37 28 -39 10 -47z m192 57 c0 -2 -7
-4 -15 -4 -8 0 -15 4 -15 10 0 5 7 7 15 4 8 -4 15 -8 15 -10z m-305 -31 c19
-9 35 -20 35 -25 0 -4 7 -8 15 -8 8 0 15 -4 15 -9 0 -5 2 -15 5 -23 3 -9 -3
-13 -19 -13 -13 0 -22 3 -20 6 2 3 -10 16 -26 27 -27 20 -58 62 -46 62 3 0 21
-8 41 -17z m232 -19 c-3 -3 -12 -4 -19 -1 -8 3 -5 6 6 6 11 1 17 -2 13 -5z
m-487 -57 c32 -37 33 -40 12 -34 -19 4 -21 3 -11 -9 16 -19 -2 -18 -27 2 -10
8 -13 13 -6 9 17 -9 15 20 -3 35 -15 13 -21 41 -7 39 4 0 23 -19 42 -42z m403
16 c-3 -6 6 -13 18 -15 38 -5 31 -23 -11 -25 -31 -2 -43 2 -55 19 -21 31 -20
33 19 33 21 0 32 -4 29 -12z m1355 -18 c-1 -20 -5 -31 -9 -24 -4 6 -12 8 -19
4 -10 -6 -9 -9 0 -15 17 -10 2 -33 -17 -26 -8 3 -12 2 -8 -3 3 -5 -1 -12 -7
-15 -7 -3 0 -4 15 -1 20 4 27 2 22 -6 -5 -8 -1 -9 14 -4 36 11 23 -2 -30 -29
l-50 -27 7 48 c7 42 10 71 13 96 1 4 9 7 20 7 10 0 24 7 31 15 18 21 20 19 18
-20z m-596 9 c34 -18 28 -32 -18 -40 -27 -5 -28 -4 -10 9 18 13 18 14 1 21
-10 4 -21 2 -25 -5 -6 -8 -9 -8 -14 0 -4 6 -2 11 4 11 6 0 8 5 5 10 -9 15 22
12 57 -6z m-632 -14 c13 -9 13 -10 0 -10 -8 0 -22 5 -30 10 -13 9 -13 10 0 10
8 0 22 -5 30 -10z m1820 -4 c0 -2 -8 -10 -17 -17 -16 -13 -17 -12 -4 4 13 16
21 21 21 13z m60 -11 c-7 -9 -15 -13 -19 -10 -3 3 1 10 9 15 21 14 24 12 10
-5z m-2075 -5 c8 -13 -5 -13 -25 0 -13 8 -13 10 2 10 9 0 20 -4 23 -10z m775
-14 c0 -3 -4 -8 -10 -11 -5 -3 -10 -1 -10 4 0 6 5 11 10 11 6 0 10 -2 10 -4z
m1195 -16 c-3 -5 -12 -10 -18 -10 -7 0 -6 4 3 10 19 12 23 12 15 0z m-25 -28
c0 -5 -7 -9 -15 -9 -8 0 -12 4 -9 9 3 4 9 8 15 8 5 0 9 -4 9 -8z m-1833 -8
c-3 -3 -12 -4 -19 -1 -8 3 -5 6 6 6 11 1 17 -2 13 -5z m1192 -23 c-3 -6 -10
-7 -18 -2 -7 5 -10 14 -6 21 9 14 29 -2 24 -19z m-1306 12 c-7 -2 -19 -2 -25
0 -7 3 -2 5 12 5 14 0 19 -2 13 -5z m257 -106 c0 -2 -10 -12 -22 -23 l-23 -19
19 23 c18 21 26 27 26 19z"/>
<path d="M6065 4400 c-3 -5 1 -10 10 -10 9 0 13 5 10 10 -3 6 -8 10 -10 10 -2
0 -7 -4 -10 -10z"/>
<path d="M6127 4376 c-4 -10 0 -12 14 -9 10 3 16 9 13 14 -8 13 -21 11 -27 -5z"/>
<path d="M3035 2770 c-3 -5 -2 -10 4 -10 5 0 13 5 16 10 3 6 2 10 -4 10 -5 0
-13 -4 -16 -10z"/>
<path d="M4244 2761 c6 -10 -39 -26 -82 -30 -11 -1 -10 -4 2 -16 20 -20 38
-19 70 6 14 11 29 18 34 15 4 -2 14 -1 22 4 12 7 12 12 2 22 -9 9 -12 9 -12
-2 0 -11 -3 -11 -12 -2 -14 14 -32 16 -24 3z"/>
<path d="M4430 2718 c0 -12 7 -18 23 -17 15 0 17 2 7 6 -8 3 -18 11 -22 17 -5
7 -8 4 -8 -6z"/>
<path d="M5732 851 c4 -13 18 -16 19 -4 0 4 -5 9 -11 12 -7 2 -11 -2 -8 -8z"/>
<path d="M5802 821 c4 -13 18 -16 19 -4 0 4 -5 9 -11 12 -7 2 -11 -2 -8 -8z"/>
<path d="M3602 505 c0 -16 2 -22 5 -12 2 9 2 23 0 30 -3 6 -5 -1 -5 -18z"/>
<path d="M3666 442 c-2 -4 -1 -14 5 -22 7 -12 9 -10 9 8 0 23 -5 28 -14 14z"/>
<path d="M3888 273 c7 -3 16 -2 19 1 4 3 -2 6 -13 5 -11 0 -14 -3 -6 -6z"/>
<path d="M6068 5023 c-10 -2 -18 -9 -18 -14 0 -6 8 -5 20 1 11 6 20 13 20 15
0 3 -1 4 -2 4 -2 -1 -11 -3 -20 -6z"/>
<path d="M4734 4996 c-9 -15 -14 -29 -12 -32 3 -2 13 7 22 22 10 14 15 28 13
31 -3 2 -13 -7 -23 -21z"/>
<path d="M6006 4985 c-16 -12 -17 -15 -4 -15 9 0 18 7 22 15 7 18 6 18 -18 0z"/>
<path d="M4785 4960 c-10 -11 -16 -22 -13 -25 3 -3 13 6 22 20 20 30 16 32 -9
5z"/>
<path d="M5944 4972 c-6 -4 -16 -18 -23 -32 l-12 -25 20 23 c12 14 21 18 23
10 3 -9 6 -9 12 0 4 7 2 12 -4 12 -6 0 -8 5 -5 10 7 12 4 12 -11 2z"/>
<path d="M5999 4943 c-13 -16 -12 -17 4 -4 16 13 21 21 13 21 -2 0 -10 -8 -17
-17z"/>
<path d="M4740 4907 c-32 -25 -63 -78 -52 -89 7 -7 16 0 28 23 9 19 24 44 32
57 16 25 14 27 -8 9z"/>
<path d="M5859 4883 c-13 -16 -12 -17 4 -4 16 13 21 21 13 21 -2 0 -10 -8 -17
-17z"/>
<path d="M5758 4869 c-21 -12 -24 -39 -4 -39 7 0 20 8 27 17 12 14 12 16 0 8
-11 -6 -13 -4 -8 8 7 20 7 20 -15 6z"/>
<path d="M5530 4849 c0 -5 5 -7 10 -4 6 3 10 8 10 11 0 2 -4 4 -10 4 -5 0 -10
-5 -10 -11z"/>
<path d="M4377 4553 c-4 -3 -7 -11 -7 -17 0 -6 5 -5 12 2 6 6 9 14 7 17 -3 3
-9 2 -12 -2z"/>
<path d="M6460 4449 c0 -5 -4 -8 -9 -4 -5 3 -17 -5 -25 -17 -19 -26 -11 -39 8
-13 10 14 15 15 21 5 5 -9 4 -11 -3 -6 -7 4 -12 2 -12 -4 0 -7 5 -10 12 -8 11
4 24 58 13 58 -3 0 -5 -5 -5 -11z"/>
<path d="M6609 4414 c-24 -25 -28 -33 -14 -28 18 7 19 6 5 -12 -14 -18 -14
-18 10 1 30 24 59 57 60 68 0 18 -29 4 -61 -29z"/>
<path d="M6635 4374 c-26 -27 -48 -64 -41 -71 3 -4 -2 -16 -11 -27 -18 -21
-18 -21 3 -3 20 17 80 117 70 117 -2 0 -12 -7 -21 -16z"/>
<path d="M6269 4073 l-24 -28 28 24 c15 14 27 26 27 28 0 8 -8 1 -31 -24z"/>
<path d="M6329 4023 c-13 -16 -12 -17 4 -4 16 13 21 21 13 21 -2 0 -10 -8 -17
-17z"/>
<path d="M6181 3947 c-13 -21 -12 -21 5 -5 10 10 16 20 13 22 -3 3 -11 -5 -18
-17z"/>
<path d="M6500 3919 c0 -5 5 -7 10 -4 6 3 10 8 10 11 0 2 -4 4 -10 4 -5 0 -10
-5 -10 -11z"/>
<path d="M6516 3894 c-17 -12 -17 -14 -4 -14 9 0 20 5 23 11 11 17 2 18 -19 3z"/>
<path d="M6485 3840 c-3 -5 -2 -10 4 -10 5 0 13 5 16 10 3 6 2 10 -4 10 -5 0
-13 -4 -16 -10z"/>
<path d="M6329 3613 l-24 -26 27 19 c15 10 28 22 28 27 0 12 -5 8 -31 -20z"/>
<path d="M3626 3527 c-11 -8 -17 -19 -15 -24 2 -6 12 0 22 13 20 27 19 30 -7
11z"/>
<path d="M3580 3459 c0 -5 5 -7 10 -4 6 3 10 8 10 11 0 2 -4 4 -10 4 -5 0 -10
-5 -10 -11z"/>
<path d="M3060 3109 c0 -5 -5 -7 -12 -3 -6 4 -8 3 -5 -4 8 -12 47 -4 47 9 0 5
-7 9 -15 9 -8 0 -15 -5 -15 -11z"/>
<path d="M3035 3000 c-3 -5 -1 -10 4 -10 6 0 11 5 11 10 0 6 -2 10 -4 10 -3 0
-8 -4 -11 -10z"/>
<path d="M2655 2805 c-14 -13 -25 -30 -25 -37 0 -7 3 -8 8 -2 4 5 18 21 31 37
30 34 19 36 -14 2z"/>
<path d="M2695 2770 c-10 -11 -16 -22 -13 -25 3 -3 13 4 23 15 10 11 16 22 13
25 -3 3 -13 -4 -23 -15z"/>
<path d="M6076 2635 c4 -8 7 -15 9 -15 2 0 5 7 9 15 3 9 0 15 -9 15 -9 0 -12
-6 -9 -15z"/>
<path d="M6206 2622 c-3 -6 -2 -13 4 -17 6 -4 8 -10 6 -14 -3 -4 4 -20 15 -37
10 -16 19 -24 19 -18 0 6 -3 14 -7 18 -4 3 -8 12 -9 19 -5 31 -21 60 -28 49z"/>
<path d="M6094 2603 c4 -7 2 -22 -4 -33 -9 -18 -8 -19 12 -11 13 4 25 17 27
27 2 11 0 16 -4 12 -5 -4 -15 -2 -23 5 -12 9 -14 9 -8 0z"/>
<path d="M6114 2436 c-10 -8 -16 -17 -13 -20 10 -10 39 5 39 20 0 17 -2 17
-26 0z"/>
<path d="M2777 2415 c-42 -29 -51 -46 -9 -20 54 36 66 45 57 45 -6 0 -27 -11
-48 -25z"/>
<path d="M6160 2233 c0 -10 -5 -11 -18 -4 -11 6 -24 6 -33 0 -12 -7 -12 -9 1
-10 8 -1 21 -1 28 0 7 1 12 -2 11 -6 -3 -20 2 -27 11 -13 8 12 10 10 10 -9 0
-36 14 -15 15 23 1 21 -3 33 -12 33 -7 0 -13 -6 -13 -14z"/>
<path d="M2942 2184 c-27 -28 -30 -35 -17 -40 9 -4 21 -2 28 5 6 6 7 11 3 11
-5 0 1 8 13 18 12 10 18 22 13 29 -5 8 -18 1 -40 -23z"/>
<path d="M2833 2177 c-25 -11 -31 -27 -9 -27 14 0 42 28 35 34 -2 2 -14 -1
-26 -7z"/>
<path d="M3416 2181 c-3 -5 1 -11 9 -15 9 -3 15 0 15 9 0 16 -16 20 -24 6z"/>
<path d="M3464 2177 c-3 -9 1 -23 10 -32 9 -9 16 -21 16 -26 0 -5 4 -9 9 -9
11 0 2 39 -15 64 -12 17 -14 18 -20 3z"/>
<path d="M3067 2143 c-3 -4 1 -14 9 -20 7 -7 15 -9 18 -4 3 5 -1 14 -8 20 -8
7 -16 8 -19 4z"/>
<path d="M3521 2118 c-1 -16 4 -28 9 -28 12 0 12 8 0 35 -8 18 -9 17 -9 -7z"/>
<path d="M2880 2110 c-9 -18 -8 -18 20 -9 39 14 48 29 16 29 -15 0 -30 -8 -36
-20z"/>
<path d="M3415 2120 c-3 -5 -1 -10 5 -10 6 0 8 -5 5 -10 -3 -6 -3 -20 1 -32
l7 -23 9 24 c14 39 -8 81 -27 51z"/>
<path d="M3036 2111 c-4 -6 -2 -19 5 -27 6 -8 9 -18 5 -22 -4 -4 -13 1 -21 11
-14 19 -22 13 -44 -33 -11 -22 -11 -23 2 -7 16 20 33 22 43 5 5 -7 2 -9 -7 -6
-10 4 -31 -16 -62 -61 -26 -36 -46 -69 -45 -72 5 -12 -35 -49 -46 -42 -6 3 -8
3 -4 -2 4 -4 3 -14 -3 -22 -6 -7 -8 -13 -4 -13 13 0 132 111 145 136 7 13 15
22 18 19 7 -7 -47 -74 -92 -114 -79 -70 -120 -115 -107 -119 9 -3 8 -9 -5 -23
-9 -10 -21 -16 -27 -12 -6 3 -7 1 -3 -5 4 -7 2 -12 -3 -12 -6 0 -11 -6 -11
-14 0 -8 -10 -22 -22 -30 -12 -9 -19 -19 -15 -23 4 -3 31 19 60 50 29 31 57
57 62 57 6 0 38 27 73 60 75 72 71 79 -7 12 -31 -27 -63 -52 -71 -56 -17 -9
35 40 105 98 26 22 54 55 61 73 8 18 17 33 20 33 3 0 2 -5 -2 -12 -4 -7 -3 -8
5 -4 6 4 9 11 6 16 -3 4 2 24 10 44 9 20 13 41 10 46 -4 6 -1 10 4 10 6 0 11
7 11 15 0 8 -4 15 -8 15 -5 0 -13 10 -19 22 -7 15 -12 18 -17 9z m-55 -148
c-5 -10 -24 -31 -42 -48 -29 -27 -29 -25 7 17 42 51 50 58 35 31z"/>
<path d="M3457 2084 c-4 -20 -3 -42 1 -48 3 -6 5 -18 4 -28 -2 -9 2 -19 8 -23
5 -3 10 -16 10 -28 0 -20 0 -20 -15 -1 -18 23 -19 11 -3 -33 15 -40 25 -43 25
-5 0 15 1 36 2 47 3 46 -1 84 -13 120 l-13 37 -6 -38z"/>
<path d="M3552 2090 c0 -14 2 -19 5 -12 2 6 2 18 0 25 -3 6 -5 1 -5 -13z"/>
<path d="M2895 2076 c-10 -14 -22 -23 -31 -19 -8 3 -14 1 -14 -5 0 -6 7 -9 15
-8 18 3 59 45 52 53 -3 2 -13 -7 -22 -21z"/>
<path d="M3510 2052 c0 -18 5 -32 10 -32 6 0 8 11 4 28 -10 39 -14 40 -14 4z"/>
<path d="M3561 2044 c0 -11 3 -14 6 -6 3 7 2 16 -1 19 -3 4 -6 -2 -5 -13z"/>
<path d="M2884 2028 l-19 -23 23 19 c21 18 27 26 19 26 -2 0 -12 -10 -23 -22z"/>
<path d="M3410 2031 c0 -17 24 -51 35 -51 7 0 -17 60 -26 66 -5 3 -9 -4 -9
-15z"/>
<path d="M3522 1985 c0 -16 2 -22 5 -12 2 9 2 23 0 30 -3 6 -5 -1 -5 -18z"/>
<path d="M2920 1970 c-6 -11 -8 -20 -6 -20 3 0 10 9 16 20 6 11 8 20 6 20 -3
0 -10 -9 -16 -20z"/>
<path d="M5965 1979 c-4 -6 -5 -12 -2 -15 2 -3 7 2 10 11 7 17 1 20 -8 4z"/>
<path d="M3301 1938 c-14 -23 -14 -23 8 -4 22 20 25 26 13 26 -4 0 -13 -10
-21 -22z"/>
<path d="M3359 1935 c-4 -5 -9 -23 -13 -40 -7 -30 -7 -30 9 -7 9 12 15 30 13
40 -2 9 -6 13 -9 7z"/>
<path d="M6187 1926 c-4 -10 -1 -13 8 -9 8 3 12 9 9 14 -7 12 -11 11 -17 -5z"/>
<path d="M3642 1906 c3 -4 0 -25 -7 -46 -7 -21 -11 -41 -8 -44 4 -3 1 -6 -4
-6 -15 0 -53 -81 -52 -111 1 -20 2 -19 10 9 5 18 14 30 19 27 6 -4 10 -1 10 5
0 6 7 18 15 26 8 9 15 31 15 49 0 19 4 45 10 59 6 18 6 27 -3 32 -7 4 -9 4 -5
0z"/>
<path d="M6195 1900 c-3 -5 -1 -10 4 -10 6 0 11 5 11 10 0 6 -2 10 -4 10 -3 0
-8 -4 -11 -10z"/>
<path d="M3558 1864 c-3 -21 -24 -82 -46 -134 -37 -88 -72 -198 -41 -130 6 14
15 34 19 45 5 11 17 40 29 65 47 104 61 150 52 172 -7 19 -9 17 -13 -18z"/>
<path d="M5910 1891 c0 -7 -4 -9 -10 -6 -5 3 -10 2 -10 -4 0 -16 21 -24 33
-12 8 8 8 14 -1 23 -9 9 -12 9 -12 -1z"/>
<path d="M5933 1873 c-11 -24 -10 -30 9 -52 13 -14 26 -30 31 -36 5 -6 5 -3 2
6 -4 10 -2 20 4 24 6 3 11 -2 11 -13 0 -11 8 -26 17 -33 11 -9 14 -10 9 -2 -5
9 -2 11 7 7 8 -3 17 2 21 11 3 9 2 14 -2 11 -5 -3 -14 11 -21 30 -7 18 -17 34
-22 34 -13 0 -11 -9 6 -27 9 -8 13 -18 10 -21 -3 -3 -13 5 -22 18 -15 22 -17
22 -30 5 -14 -20 -16 -16 -13 33 2 39 -1 40 -17 5z"/>
<path d="M3605 1869 c-4 -6 -5 -12 -2 -15 2 -3 7 2 10 11 7 17 1 20 -8 4z"/>
<path d="M3213 1825 c0 -8 4 -15 9 -15 4 0 8 4 8 9 0 6 -4 12 -8 15 -5 3 -9
-1 -9 -9z"/>
<path d="M3195 1790 c-3 -5 -1 -10 4 -10 6 0 11 5 11 10 0 6 -2 10 -4 10 -3 0
-8 -4 -11 -10z"/>
<path d="M3155 1740 c-8 -16 -15 -40 -15 -54 0 -14 -4 -28 -10 -31 -5 -3 -15
-15 -21 -27 -11 -20 -11 -20 15 -2 24 18 27 26 30 63 1 8 7 16 14 19 10 3 10
7 0 20 -10 12 -10 14 0 8 8 -5 12 0 12 13 0 29 -7 26 -25 -9z"/>
<path d="M6050 1759 c0 -5 -4 -7 -10 -4 -6 4 -7 -1 -3 -11 4 -11 8 -13 11 -6
2 7 8 10 13 7 5 -4 6 1 3 9 -7 18 -14 21 -14 5z"/>
<path d="M3530 1690 c-15 -55 -7 -63 9 -9 7 22 10 43 7 46 -2 3 -10 -14 -16
-37z"/>
<path d="M2699 1659 c-22 -22 -38 -43 -35 -46 7 -7 96 65 96 78 0 19 -21 8
-61 -32z"/>
<path d="M3100 1658 c-20 -32 -39 -107 -28 -114 5 -3 8 -2 7 3 -4 14 13 67 28
91 19 30 12 49 -7 20z"/>
<path d="M2787 1617 c-37 -29 -75 -64 -84 -77 -15 -21 -12 -20 28 8 56 38 147
121 134 121 -5 0 -40 -23 -78 -52z"/>
<path d="M3561 1654 c0 -11 3 -14 6 -6 3 7 2 16 -1 19 -3 4 -6 -2 -5 -13z"/>
<path d="M2604 1639 c-19 -22 -19 -22 4 -8 12 8 22 17 22 21 0 12 -6 9 -26
-13z"/>
<path d="M6210 1646 c0 -2 7 -7 16 -10 8 -3 12 -2 9 4 -6 10 -25 14 -25 6z"/>
<path d="M6375 1607 c-4 -10 -5 -21 -1 -24 10 -10 18 4 13 24 -4 17 -4 17 -12
0z"/>
<path d="M2615 1581 c-3 -6 3 -9 14 -8 11 0 17 5 15 9 -7 11 -22 10 -29 -1z"/>
<path d="M3030 1575 c-8 -9 -8 -15 -2 -15 12 0 26 19 19 26 -2 2 -10 -2 -17
-11z"/>
<path d="M6415 1582 c-29 -6 -43 -22 -19 -22 20 0 52 16 44 23 -3 2 -14 1 -25
-1z"/>
<path d="M2695 1570 c-4 -6 -12 -7 -18 -4 -8 5 -8 2 1 -7 10 -11 15 -10 29 4
10 10 12 17 6 17 -7 0 -15 -5 -18 -10z"/>
<path d="M6575 1570 c-3 -5 -1 -10 4 -10 6 0 11 5 11 10 0 6 -2 10 -4 10 -3 0
-8 -4 -11 -10z"/>
<path d="M5935 1547 c-21 -24 -26 -37 -13 -32 15 6 42 45 31 45 -5 -1 -13 -6
-18 -13z"/>
<path d="M5940 1510 c-35 -41 -39 -50 -23 -50 29 0 35 -11 16 -32 -9 -10 -13
-21 -10 -25 4 -3 7 -1 7 7 0 10 3 10 15 0 13 -11 14 -10 9 4 -4 10 -1 16 8 16
18 0 48 32 48 51 0 12 -2 12 -10 -1 -5 -8 -12 -11 -16 -7 -13 13 -15 49 -3 64
7 7 10 16 7 19 -3 2 -24 -18 -48 -46z"/>
<path d="M2919 1533 c-9 -10 -33 -33 -55 -51 -21 -18 -31 -31 -22 -28 10 3 23
-1 30 -8 10 -10 23 -4 70 32 32 25 58 49 58 54 0 11 -52 -24 -92 -60 -24 -22
-28 -23 -28 -8 0 10 8 20 18 23 10 2 26 18 36 34 19 32 10 39 -15 12z"/>
<path d="M5800 1530 c-14 -11 -20 -20 -14 -20 6 0 19 9 29 20 23 25 17 25 -15
0z"/>
<path d="M6391 1541 c-8 -5 -16 -18 -17 -28 -3 -17 -2 -17 10 0 7 9 18 17 25
17 6 0 11 5 11 10 0 12 -10 13 -29 1z"/>
<path d="M6030 1520 c0 -28 27 -73 39 -66 4 3 6 19 3 36 -2 17 -7 29 -10 26
-3 -3 -11 2 -18 12 -12 15 -13 15 -14 -8z"/>
<path d="M5863 1507 c4 -10 -1 -18 -12 -22 -24 -7 -56 -43 -47 -52 4 -4 10 -3
14 2 4 6 21 17 37 25 31 16 41 50 16 58 -10 3 -12 0 -8 -11z"/>
<path d="M2989 1470 c-13 -10 -19 -19 -13 -20 6 0 19 9 29 20 23 26 14 26 -16
0z"/>
<path d="M6554 1445 c-10 -8 -14 -15 -8 -15 6 0 17 7 24 15 16 19 9 19 -16 0z"/>
<path d="M6080 1436 c-5 -5 -10 -19 -9 -30 0 -12 3 -15 6 -8 2 6 9 12 14 12 6
0 8 -4 4 -9 -3 -5 -1 -12 4 -16 13 -7 33 29 26 48 -7 16 -30 18 -45 3z"/>
<path d="M2939 1423 c-13 -16 -12 -17 4 -4 16 13 21 21 13 21 -2 0 -10 -8 -17
-17z"/>
<path d="M5833 1399 c-18 -16 -33 -33 -33 -36 0 -4 16 8 35 27 32 31 39 40 33
40 -2 0 -18 -14 -35 -31z"/>
<path d="M6491 1421 c-9 -6 -10 -11 -2 -15 6 -4 11 -3 11 3 0 5 8 12 18 14 12
3 13 5 2 6 -8 0 -21 -3 -29 -8z"/>
<path d="M5978 1392 c-2 -18 -1 -35 4 -38 4 -3 8 2 8 11 0 10 5 13 13 9 9 -6
9 -4 1 7 -6 8 -13 21 -16 29 -3 8 -7 0 -10 -18z"/>
<path d="M6007 1414 c-8 -8 1 -24 14 -24 5 0 9 7 9 15 0 15 -12 20 -23 9z"/>
<path d="M6262 1404 c-29 -20 -29 -44 1 -37 l22 5 -22 -19 c-11 -10 -24 -34
-28 -53 -7 -33 -6 -34 9 -15 8 11 16 25 16 31 0 6 6 17 14 23 20 17 28 54 10
47 -17 -7 -18 6 -2 22 17 17 7 15 -20 -4z"/>
<path d="M6494 1385 c-10 -8 -14 -14 -9 -15 15 0 40 18 34 24 -3 3 -14 -1 -25
-9z"/>
<path d="M6565 1381 c-3 -6 -11 -8 -17 -5 -7 5 -8 2 -3 -6 4 -7 2 -16 -5 -20
-8 -5 -8 -10 -2 -14 10 -6 47 42 39 51 -3 2 -8 -1 -12 -6z"/>
<path d="M2939 1359 c-19 -16 -20 -18 -4 -10 34 17 51 31 39 31 -7 0 -22 -9
-35 -21z"/>
<path d="M6060 1345 c-14 -16 -10 -18 14 -9 9 3 16 10 16 15 0 14 -16 11 -30
-6z"/>
<path d="M6114 1335 c-5 -22 -9 -24 -22 -13 -10 8 -13 8 -9 2 4 -7 0 -15 -9
-18 -8 -3 -22 -22 -30 -41 -8 -20 -19 -33 -24 -30 -6 4 -7 12 -3 18 4 7 0 6
-10 -2 -9 -7 -17 -21 -16 -30 0 -12 2 -12 8 3 7 18 9 17 24 -12 13 -28 14 -36
2 -58 -14 -27 -10 -58 6 -48 5 3 5 -4 1 -16 -9 -25 -29 -26 -24 -2 3 13 1 14
-8 6 -8 -8 -8 -18 1 -37 13 -29 21 -24 51 28 10 17 23 29 29 27 6 -1 9 3 7 10
-3 7 4 22 15 33 10 11 23 28 28 38 17 31 -7 18 -45 -23 -42 -46 -48 -42 -10 7
14 18 27 43 29 55 3 11 14 31 25 43 23 25 27 43 5 25 -9 -7 -18 -10 -22 -6 -3
3 -2 6 4 6 5 0 10 14 11 30 1 37 -5 39 -14 5z m-44 -130 c-7 -9 -15 -13 -19
-10 -3 3 1 10 9 15 21 14 24 12 10 -5z"/>
<path d="M6446 1343 c4 -19 2 -22 -13 -17 -11 4 -14 3 -7 -3 6 -4 14 -15 17
-23 4 -12 6 -12 6 1 1 9 8 20 17 23 8 3 12 10 9 16 -4 6 -10 8 -15 5 -4 -3
-11 1 -14 7 -3 7 -3 3 0 -9z"/>
<path d="M3461 1304 c0 -11 3 -14 6 -6 3 7 2 16 -1 19 -3 4 -6 -2 -5 -13z"/>
<path d="M6127 1263 c-4 -3 -7 -11 -7 -17 0 -6 5 -5 12 2 6 6 9 14 7 17 -3 3
-9 2 -12 -2z"/>
<path d="M6206 1235 c-3 -9 -6 -22 -5 -28 0 -7 5 -1 10 12 5 13 8 26 5 28 -2
2 -6 -3 -10 -12z"/>
<path d="M3379 1190 l-24 -20 28 11 c15 7 27 16 27 21 0 12 -5 10 -31 -12z"/>
<path d="M6005 1190 c-3 -5 1 -10 10 -10 9 0 13 5 10 10 -3 6 -8 10 -10 10 -2
0 -7 -4 -10 -10z"/>
<path d="M6113 1148 c-11 -14 -24 -58 -17 -58 2 0 11 14 19 31 17 32 15 49 -2
27z"/>
<path d="M6065 1090 c-4 -12 -5 -24 -2 -27 3 -2 8 5 12 17 4 12 5 24 2 27 -3
2 -8 -5 -12 -17z"/>
<path d="M6250 1069 c0 -5 5 -7 10 -4 6 3 10 8 10 11 0 2 -4 4 -10 4 -5 0 -10
-5 -10 -11z"/>
<path d="M6180 945 c-11 -13 -10 -14 4 -9 9 3 16 10 16 15 0 13 -6 11 -20 -6z"/>
<path d="M3000 791 c0 -12 68 -71 82 -71 5 0 -8 18 -30 40 -40 40 -52 47 -52
31z"/>
<path d="M6060 789 c0 -5 5 -7 10 -4 6 3 10 8 10 11 0 2 -4 4 -10 4 -5 0 -10
-5 -10 -11z"/>
<path d="M6086 773 c-6 -14 -5 -15 5 -6 7 7 10 15 7 18 -3 3 -9 -2 -12 -12z"/>
<path d="M6057 763 c-4 -6 -3 -21 1 -33 8 -21 9 -21 23 -4 7 10 9 15 2 11 -7
-5 -13 1 -15 15 -2 15 -6 19 -11 11z"/>
<path d="M3575 740 c3 -5 8 -10 11 -10 2 0 4 5 4 10 0 6 -5 10 -11 10 -5 0 -7
-4 -4 -10z"/>
<path d="M3526 688 l-17 -33 20 24 c18 20 27 41 18 41 -1 0 -11 -15 -21 -32z"/>
<path d="M6294 674 c-18 -14 -18 -15 4 -4 12 6 22 13 22 15 0 8 -5 6 -26 -11z"/>
<path d="M2765 650 c3 -5 11 -10 16 -10 6 0 7 5 4 10 -3 6 -11 10 -16 10 -6 0
-7 -4 -4 -10z"/>
<path d="M6178 445 c-11 -25 -28 -34 -28 -14 0 5 -5 7 -10 4 -6 -3 -7 -17 -4
-29 5 -23 -18 -69 -88 -176 l-30 -45 49 50 c27 28 49 52 48 55 0 3 4 5 8 5 9
0 64 86 78 122 6 17 6 22 -2 17 -8 -4 -9 0 -4 15 9 29 -3 26 -17 -4z"/>
<path d="M6174 347 c-28 -45 -56 -81 -63 -79 -7 1 -10 -1 -7 -6 2 -4 -13 -28
-35 -52 -25 -28 -36 -47 -30 -53 6 -6 41 22 95 77 89 91 166 189 141 179 -8
-3 -15 -8 -15 -12 0 -3 -14 -22 -31 -41 l-30 -35 25 48 c30 55 30 57 14 57 -7
-1 -36 -38 -64 -83z m-94 -150 c0 -2 -10 -12 -22 -23 l-23 -19 19 23 c18 21
26 27 26 19z"/>
<path d="M5844 54 c-4 -10 -9 -22 -11 -26 -2 -5 0 -8 5 -8 10 0 24 41 17 48
-3 3 -8 -4 -11 -14z"/>
<path d="M3566 46 c6 -15 47 -36 71 -36 22 0 11 10 -36 31 -28 12 -38 14 -35
5z"/>
<path d="M5538 35 c-4 -21 -3 -23 13 -14 22 12 24 25 5 32 -9 4 -16 -3 -18
-18z"/>
<path d="M3486 22 c-3 -5 1 -9 9 -9 8 0 12 4 9 9 -3 4 -7 8 -9 8 -2 0 -6 -4
-9 -8z"/>
</g>
</svg>
